<mxfile host="Electron" modified="2024-04-25T19:31:07.069Z" agent="Mozilla/5.0 (Windows NT 10.0; Win64; x64) AppleWebKit/537.36 (KHTML, like Gecko) draw.io/24.2.5 Chrome/120.0.6099.109 Electron/28.1.0 Safari/537.36" etag="qPB71xDRYTwxNFy-ttxy" version="24.2.5" type="device">
  <diagram name="Page-1" id="d9lKd2YQBk-tlrV778MQ">
    <mxGraphModel dx="2604" dy="1937" grid="1" gridSize="10" guides="1" tooltips="1" connect="1" arrows="1" fold="1" page="0" pageScale="1" pageWidth="850" pageHeight="1100" background="none" math="0" shadow="0">
      <root>
        <mxCell id="0" />
        <mxCell id="1" parent="0" />
        <mxCell id="zyvCb6m9SqBTexZ4Kr70-3" value="&lt;p&gt;&lt;font&gt;Final Project Flow Diagram&lt;/font&gt;&lt;/p&gt;" style="shape=process;whiteSpace=wrap;html=1;backgroundOutline=1;fontFamily=Lucida Console;" parent="1" vertex="1">
          <mxGeometry x="-100" y="350" width="120" height="60" as="geometry" />
        </mxCell>
        <mxCell id="zyvCb6m9SqBTexZ4Kr70-101" value="" style="edgeStyle=none;curved=0;rounded=0;orthogonalLoop=1;jettySize=auto;html=1;strokeColor=default;align=center;verticalAlign=middle;fontFamily=Lucida Console;fontSize=12;fontColor=default;labelBackgroundColor=default;startSize=14;endArrow=open;endSize=14;sourcePerimeterSpacing=8;targetPerimeterSpacing=8;" parent="1" source="zyvCb6m9SqBTexZ4Kr70-32" target="zyvCb6m9SqBTexZ4Kr70-100" edge="1">
          <mxGeometry relative="1" as="geometry" />
        </mxCell>
        <mxCell id="zyvCb6m9SqBTexZ4Kr70-32" value="&lt;div&gt;&lt;font&gt;FUNCTION&lt;/font&gt;&lt;/div&gt;&lt;font&gt;setGraticule&lt;/font&gt;" style="shape=hexagon;perimeter=hexagonPerimeter2;whiteSpace=wrap;html=1;fixedSize=1;fontFamily=Lucida Console;" parent="1" vertex="1">
          <mxGeometry x="620" y="340" width="120" height="80" as="geometry" />
        </mxCell>
        <mxCell id="zyvCb6m9SqBTexZ4Kr70-55" value="" style="edgeStyle=none;curved=1;rounded=0;orthogonalLoop=1;jettySize=auto;html=1;fontFamily=Lucida Console;fontSize=12;fontColor=default;startSize=14;endArrow=open;endSize=14;sourcePerimeterSpacing=8;targetPerimeterSpacing=8;" parent="1" source="zyvCb6m9SqBTexZ4Kr70-34" target="zyvCb6m9SqBTexZ4Kr70-54" edge="1">
          <mxGeometry relative="1" as="geometry">
            <Array as="points" />
          </mxGeometry>
        </mxCell>
        <mxCell id="zyvCb6m9SqBTexZ4Kr70-34" value="FUNCTION&lt;div&gt;createData&lt;/div&gt;" style="shape=hexagon;perimeter=hexagonPerimeter2;whiteSpace=wrap;html=1;fixedSize=1;fontFamily=Lucida Console;" parent="1" vertex="1">
          <mxGeometry x="380" y="340" width="120" height="80" as="geometry" />
        </mxCell>
        <mxCell id="zyvCb6m9SqBTexZ4Kr70-47" value="" style="edgeStyle=none;curved=1;rounded=0;orthogonalLoop=1;jettySize=auto;html=1;fontFamily=Lucida Console;fontSize=12;fontColor=default;startSize=14;endArrow=open;endSize=14;sourcePerimeterSpacing=8;targetPerimeterSpacing=8;" parent="1" source="zyvCb6m9SqBTexZ4Kr70-38" target="zyvCb6m9SqBTexZ4Kr70-46" edge="1">
          <mxGeometry relative="1" as="geometry" />
        </mxCell>
        <mxCell id="zyvCb6m9SqBTexZ4Kr70-38" value="&lt;div&gt;FUNCTION&lt;/div&gt;drawCSV" style="shape=hexagon;perimeter=hexagonPerimeter2;whiteSpace=wrap;html=1;fixedSize=1;fontFamily=Lucida Console;" parent="1" vertex="1">
          <mxGeometry x="140" y="340" width="120" height="80" as="geometry" />
        </mxCell>
        <mxCell id="zyvCb6m9SqBTexZ4Kr70-129" value="" style="edgeStyle=none;curved=0;rounded=0;orthogonalLoop=1;jettySize=auto;html=1;strokeColor=default;align=center;verticalAlign=middle;fontFamily=Lucida Console;fontSize=12;fontColor=default;labelBackgroundColor=default;startSize=14;endArrow=open;endSize=14;sourcePerimeterSpacing=8;targetPerimeterSpacing=8;" parent="1" source="zyvCb6m9SqBTexZ4Kr70-40" target="zyvCb6m9SqBTexZ4Kr70-128" edge="1">
          <mxGeometry relative="1" as="geometry" />
        </mxCell>
        <mxCell id="zyvCb6m9SqBTexZ4Kr70-40" value="FUNCTION&lt;div&gt;interpolation&lt;/div&gt;" style="shape=hexagon;perimeter=hexagonPerimeter2;whiteSpace=wrap;html=1;fixedSize=1;fontFamily=Lucida Console;" parent="1" vertex="1">
          <mxGeometry x="860" y="340" width="120" height="80" as="geometry" />
        </mxCell>
        <mxCell id="zyvCb6m9SqBTexZ4Kr70-49" value="" style="edgeStyle=none;curved=1;rounded=0;orthogonalLoop=1;jettySize=auto;html=1;fontFamily=Lucida Console;fontSize=12;fontColor=default;startSize=14;endArrow=open;endSize=14;sourcePerimeterSpacing=8;targetPerimeterSpacing=8;" parent="1" source="zyvCb6m9SqBTexZ4Kr70-46" target="zyvCb6m9SqBTexZ4Kr70-48" edge="1">
          <mxGeometry relative="1" as="geometry" />
        </mxCell>
        <mxCell id="zyvCb6m9SqBTexZ4Kr70-46" value="create csv" style="shape=parallelogram;perimeter=parallelogramPerimeter;whiteSpace=wrap;html=1;fixedSize=1;fontFamily=Lucida Console;" parent="1" vertex="1">
          <mxGeometry x="140" y="550" width="120" height="60" as="geometry" />
        </mxCell>
        <mxCell id="zyvCb6m9SqBTexZ4Kr70-51" value="" style="edgeStyle=none;curved=1;rounded=0;orthogonalLoop=1;jettySize=auto;html=1;fontFamily=Lucida Console;fontSize=12;fontColor=default;startSize=14;endArrow=open;endSize=14;sourcePerimeterSpacing=8;targetPerimeterSpacing=8;" parent="1" source="zyvCb6m9SqBTexZ4Kr70-48" target="zyvCb6m9SqBTexZ4Kr70-50" edge="1">
          <mxGeometry relative="1" as="geometry" />
        </mxCell>
        <mxCell id="zyvCb6m9SqBTexZ4Kr70-48" value="set&amp;nbsp;&lt;span style=&quot;background-color: initial;&quot;&gt;projection (equal area)&lt;/span&gt;" style="shape=parallelogram;perimeter=parallelogramPerimeter;whiteSpace=wrap;html=1;fixedSize=1;fontFamily=Lucida Console;" parent="1" vertex="1">
          <mxGeometry x="140" y="730" width="120" height="60" as="geometry" />
        </mxCell>
        <mxCell id="zyvCb6m9SqBTexZ4Kr70-94" value="" style="edgeStyle=none;curved=0;rounded=0;orthogonalLoop=1;jettySize=auto;html=1;strokeColor=default;align=center;verticalAlign=middle;fontFamily=Lucida Console;fontSize=12;fontColor=default;labelBackgroundColor=default;startSize=14;endArrow=open;endSize=14;sourcePerimeterSpacing=8;targetPerimeterSpacing=8;" parent="1" source="zyvCb6m9SqBTexZ4Kr70-50" target="zyvCb6m9SqBTexZ4Kr70-34" edge="1">
          <mxGeometry relative="1" as="geometry">
            <Array as="points">
              <mxPoint x="320" y="940" />
              <mxPoint x="320" y="380" />
            </Array>
          </mxGeometry>
        </mxCell>
        <mxCell id="zyvCb6m9SqBTexZ4Kr70-50" value="geoPath" style="shape=parallelogram;perimeter=parallelogramPerimeter;whiteSpace=wrap;html=1;fixedSize=1;fontFamily=Lucida Console;" parent="1" vertex="1">
          <mxGeometry x="140" y="910" width="120" height="60" as="geometry" />
        </mxCell>
        <mxCell id="zyvCb6m9SqBTexZ4Kr70-62" value="" style="edgeStyle=none;curved=0;rounded=0;orthogonalLoop=1;jettySize=auto;html=1;fontFamily=Lucida Console;fontSize=12;fontColor=default;startSize=14;endArrow=open;endSize=14;sourcePerimeterSpacing=8;targetPerimeterSpacing=8;dashed=1;dashPattern=8 8;" parent="1" source="zyvCb6m9SqBTexZ4Kr70-54" target="zyvCb6m9SqBTexZ4Kr70-61" edge="1">
          <mxGeometry relative="1" as="geometry">
            <Array as="points">
              <mxPoint x="360" y="580" />
              <mxPoint x="360" y="660" />
              <mxPoint x="-40" y="660" />
            </Array>
          </mxGeometry>
        </mxCell>
        <mxCell id="zyvCb6m9SqBTexZ4Kr70-78" value="" style="edgeStyle=none;curved=0;rounded=0;orthogonalLoop=1;jettySize=auto;html=1;strokeColor=default;align=center;verticalAlign=middle;fontFamily=Lucida Console;fontSize=12;fontColor=default;labelBackgroundColor=default;startSize=14;endArrow=open;endSize=14;sourcePerimeterSpacing=8;targetPerimeterSpacing=8;" parent="1" source="zyvCb6m9SqBTexZ4Kr70-54" target="zyvCb6m9SqBTexZ4Kr70-77" edge="1">
          <mxGeometry relative="1" as="geometry" />
        </mxCell>
        <mxCell id="zyvCb6m9SqBTexZ4Kr70-54" value="ARRAY&lt;div&gt;dataSet&lt;/div&gt;" style="shape=trapezoid;perimeter=trapezoidPerimeter;whiteSpace=wrap;html=1;fixedSize=1;fontFamily=Lucida Console;" parent="1" vertex="1">
          <mxGeometry x="380" y="550" width="120" height="60" as="geometry" />
        </mxCell>
        <mxCell id="zyvCb6m9SqBTexZ4Kr70-66" value="" style="edgeStyle=none;curved=0;rounded=0;orthogonalLoop=1;jettySize=auto;html=1;strokeColor=default;align=center;verticalAlign=middle;fontFamily=Lucida Console;fontSize=12;fontColor=default;labelBackgroundColor=default;startSize=14;endArrow=open;endSize=14;sourcePerimeterSpacing=8;targetPerimeterSpacing=8;" parent="1" source="zyvCb6m9SqBTexZ4Kr70-61" target="zyvCb6m9SqBTexZ4Kr70-65" edge="1">
          <mxGeometry relative="1" as="geometry">
            <Array as="points">
              <mxPoint x="-160" y="760" />
              <mxPoint x="-160" y="940" />
            </Array>
          </mxGeometry>
        </mxCell>
        <mxCell id="zyvCb6m9SqBTexZ4Kr70-68" value="" style="edgeStyle=none;curved=0;rounded=0;orthogonalLoop=1;jettySize=auto;html=1;strokeColor=default;align=center;verticalAlign=middle;fontFamily=Lucida Console;fontSize=12;fontColor=default;labelBackgroundColor=default;startSize=14;endArrow=open;endSize=14;sourcePerimeterSpacing=8;targetPerimeterSpacing=8;" parent="1" source="zyvCb6m9SqBTexZ4Kr70-61" target="zyvCb6m9SqBTexZ4Kr70-67" edge="1">
          <mxGeometry relative="1" as="geometry" />
        </mxCell>
        <mxCell id="zyvCb6m9SqBTexZ4Kr70-70" value="" style="edgeStyle=none;curved=0;rounded=0;orthogonalLoop=1;jettySize=auto;html=1;strokeColor=default;align=center;verticalAlign=middle;fontFamily=Lucida Console;fontSize=12;fontColor=default;labelBackgroundColor=default;startSize=14;endArrow=open;endSize=14;sourcePerimeterSpacing=8;targetPerimeterSpacing=8;" parent="1" source="zyvCb6m9SqBTexZ4Kr70-61" target="zyvCb6m9SqBTexZ4Kr70-69" edge="1">
          <mxGeometry relative="1" as="geometry">
            <Array as="points">
              <mxPoint x="-160" y="760" />
              <mxPoint x="-160" y="1120" />
            </Array>
          </mxGeometry>
        </mxCell>
        <mxCell id="zyvCb6m9SqBTexZ4Kr70-72" value="" style="edgeStyle=none;curved=0;rounded=0;orthogonalLoop=1;jettySize=auto;html=1;strokeColor=default;align=center;verticalAlign=middle;fontFamily=Lucida Console;fontSize=12;fontColor=default;labelBackgroundColor=default;startSize=14;endArrow=open;endSize=14;sourcePerimeterSpacing=8;targetPerimeterSpacing=8;" parent="1" source="zyvCb6m9SqBTexZ4Kr70-61" target="zyvCb6m9SqBTexZ4Kr70-71" edge="1">
          <mxGeometry relative="1" as="geometry">
            <Array as="points">
              <mxPoint x="-160" y="760" />
              <mxPoint x="-160" y="1300" />
            </Array>
          </mxGeometry>
        </mxCell>
        <mxCell id="zyvCb6m9SqBTexZ4Kr70-74" value="" style="edgeStyle=none;curved=0;rounded=0;orthogonalLoop=1;jettySize=auto;html=1;strokeColor=default;align=center;verticalAlign=middle;fontFamily=Lucida Console;fontSize=12;fontColor=default;labelBackgroundColor=default;startSize=14;endArrow=open;endSize=14;sourcePerimeterSpacing=8;targetPerimeterSpacing=8;" parent="1" source="zyvCb6m9SqBTexZ4Kr70-61" target="zyvCb6m9SqBTexZ4Kr70-73" edge="1">
          <mxGeometry relative="1" as="geometry">
            <Array as="points">
              <mxPoint x="-160" y="760" />
              <mxPoint x="-160" y="1480" />
            </Array>
          </mxGeometry>
        </mxCell>
        <mxCell id="zyvCb6m9SqBTexZ4Kr70-61" value="ARRAY&lt;div&gt;dataSet&lt;/div&gt;" style="shape=trapezoid;perimeter=trapezoidPerimeter;whiteSpace=wrap;html=1;fixedSize=1;fontFamily=Lucida Console;" parent="1" vertex="1">
          <mxGeometry x="-100" y="730" width="120" height="60" as="geometry" />
        </mxCell>
        <mxCell id="zyvCb6m9SqBTexZ4Kr70-65" value="world.csv" style="whiteSpace=wrap;html=1;fontFamily=Lucida Console;" parent="1" vertex="1">
          <mxGeometry x="-340" y="910" width="120" height="60" as="geometry" />
        </mxCell>
        <mxCell id="zyvCb6m9SqBTexZ4Kr70-67" value="land.topojson" style="whiteSpace=wrap;html=1;fontFamily=Lucida Console;" parent="1" vertex="1">
          <mxGeometry x="-340" y="730" width="120" height="60" as="geometry" />
        </mxCell>
        <mxCell id="zyvCb6m9SqBTexZ4Kr70-69" value="worldMax.csv" style="whiteSpace=wrap;html=1;fontFamily=Lucida Console;" parent="1" vertex="1">
          <mxGeometry x="-340" y="1090" width="120" height="60" as="geometry" />
        </mxCell>
        <mxCell id="zyvCb6m9SqBTexZ4Kr70-71" value="region.csv" style="whiteSpace=wrap;html=1;fontFamily=Lucida Console;" parent="1" vertex="1">
          <mxGeometry x="-340" y="1270" width="120" height="60" as="geometry" />
        </mxCell>
        <mxCell id="zyvCb6m9SqBTexZ4Kr70-73" value="regionMax.csv" style="whiteSpace=wrap;html=1;fontFamily=Lucida Console;" parent="1" vertex="1">
          <mxGeometry x="-340" y="1450" width="120" height="60" as="geometry" />
        </mxCell>
        <mxCell id="zyvCb6m9SqBTexZ4Kr70-76" value="Max.csv to be used in chart" style="shape=document;whiteSpace=wrap;html=1;boundedLbl=1;strokeColor=default;align=center;verticalAlign=middle;fontFamily=Lucida Console;fontSize=12;fontColor=default;labelBackgroundColor=default;fillColor=default;" parent="1" vertex="1">
          <mxGeometry x="-580" y="1080" width="120" height="80" as="geometry" />
        </mxCell>
        <mxCell id="zyvCb6m9SqBTexZ4Kr70-84" value="" style="edgeStyle=none;curved=0;rounded=0;orthogonalLoop=1;jettySize=auto;html=1;strokeColor=default;align=center;verticalAlign=middle;fontFamily=Lucida Console;fontSize=12;fontColor=default;labelBackgroundColor=default;startSize=14;endArrow=open;endSize=14;sourcePerimeterSpacing=8;targetPerimeterSpacing=8;" parent="1" source="zyvCb6m9SqBTexZ4Kr70-77" target="zyvCb6m9SqBTexZ4Kr70-83" edge="1">
          <mxGeometry relative="1" as="geometry" />
        </mxCell>
        <mxCell id="zyvCb6m9SqBTexZ4Kr70-77" value="data conversion to features" style="shape=parallelogram;perimeter=parallelogramPerimeter;whiteSpace=wrap;html=1;fixedSize=1;fontFamily=Lucida Console;" parent="1" vertex="1">
          <mxGeometry x="380" y="730" width="120" height="60" as="geometry" />
        </mxCell>
        <mxCell id="zyvCb6m9SqBTexZ4Kr70-87" value="" style="edgeStyle=none;curved=0;rounded=0;orthogonalLoop=1;jettySize=auto;html=1;strokeColor=default;align=center;verticalAlign=middle;fontFamily=Lucida Console;fontSize=12;fontColor=default;labelBackgroundColor=default;startSize=14;endArrow=open;endSize=14;sourcePerimeterSpacing=8;targetPerimeterSpacing=8;" parent="1" source="zyvCb6m9SqBTexZ4Kr70-83" target="zyvCb6m9SqBTexZ4Kr70-86" edge="1">
          <mxGeometry relative="1" as="geometry" />
        </mxCell>
        <mxCell id="zyvCb6m9SqBTexZ4Kr70-105" style="edgeStyle=none;curved=0;rounded=0;orthogonalLoop=1;jettySize=auto;html=1;exitX=1;exitY=0.5;exitDx=0;exitDy=0;entryX=0;entryY=0.5;entryDx=0;entryDy=0;strokeColor=default;align=center;verticalAlign=middle;fontFamily=Lucida Console;fontSize=12;fontColor=default;labelBackgroundColor=default;startSize=14;endArrow=open;endSize=14;sourcePerimeterSpacing=8;targetPerimeterSpacing=8;dashed=1;dashPattern=8 8;" parent="1" source="zyvCb6m9SqBTexZ4Kr70-83" target="zyvCb6m9SqBTexZ4Kr70-32" edge="1">
          <mxGeometry relative="1" as="geometry">
            <Array as="points">
              <mxPoint x="520" y="940" />
              <mxPoint x="520" y="380" />
            </Array>
          </mxGeometry>
        </mxCell>
        <mxCell id="zyvCb6m9SqBTexZ4Kr70-83" value="&lt;div&gt;CALL&lt;/div&gt;&lt;div&gt;setGraticule&lt;/div&gt;" style="ellipse;whiteSpace=wrap;html=1;fontFamily=Lucida Console;" parent="1" vertex="1">
          <mxGeometry x="400" y="900" width="80" height="80" as="geometry" />
        </mxCell>
        <mxCell id="zyvCb6m9SqBTexZ4Kr70-89" value="" style="edgeStyle=none;curved=0;rounded=0;orthogonalLoop=1;jettySize=auto;html=1;strokeColor=default;align=center;verticalAlign=middle;fontFamily=Lucida Console;fontSize=12;fontColor=default;labelBackgroundColor=default;startSize=14;endArrow=open;endSize=14;sourcePerimeterSpacing=8;targetPerimeterSpacing=8;" parent="1" source="zyvCb6m9SqBTexZ4Kr70-86" target="zyvCb6m9SqBTexZ4Kr70-88" edge="1">
          <mxGeometry relative="1" as="geometry" />
        </mxCell>
        <mxCell id="zyvCb6m9SqBTexZ4Kr70-107" value="" style="edgeStyle=none;curved=0;rounded=0;orthogonalLoop=1;jettySize=auto;html=1;strokeColor=default;align=center;verticalAlign=middle;fontFamily=Lucida Console;fontSize=12;fontColor=default;labelBackgroundColor=default;startSize=14;endArrow=open;endSize=14;sourcePerimeterSpacing=8;targetPerimeterSpacing=8;" parent="1" source="zyvCb6m9SqBTexZ4Kr70-86" target="zyvCb6m9SqBTexZ4Kr70-106" edge="1">
          <mxGeometry relative="1" as="geometry">
            <Array as="points">
              <mxPoint x="340" y="1120" />
              <mxPoint x="340" y="1300" />
            </Array>
          </mxGeometry>
        </mxCell>
        <mxCell id="zyvCb6m9SqBTexZ4Kr70-109" value="" style="edgeStyle=none;curved=0;rounded=0;orthogonalLoop=1;jettySize=auto;html=1;strokeColor=default;align=center;verticalAlign=middle;fontFamily=Lucida Console;fontSize=12;fontColor=default;labelBackgroundColor=default;startSize=14;endArrow=open;endSize=14;sourcePerimeterSpacing=8;targetPerimeterSpacing=8;" parent="1" source="zyvCb6m9SqBTexZ4Kr70-86" target="zyvCb6m9SqBTexZ4Kr70-108" edge="1">
          <mxGeometry relative="1" as="geometry" />
        </mxCell>
        <mxCell id="zyvCb6m9SqBTexZ4Kr70-86" value="CALL&lt;div&gt;joinData&lt;/div&gt;" style="ellipse;whiteSpace=wrap;html=1;fontFamily=Lucida Console;" parent="1" vertex="1">
          <mxGeometry x="400" y="1080" width="80" height="80" as="geometry" />
        </mxCell>
        <mxCell id="zyvCb6m9SqBTexZ4Kr70-91" value="" style="edgeStyle=none;curved=0;rounded=0;orthogonalLoop=1;jettySize=auto;html=1;strokeColor=default;align=center;verticalAlign=middle;fontFamily=Lucida Console;fontSize=12;fontColor=default;labelBackgroundColor=default;startSize=14;endArrow=open;endSize=14;sourcePerimeterSpacing=8;targetPerimeterSpacing=8;" parent="1" source="zyvCb6m9SqBTexZ4Kr70-88" target="zyvCb6m9SqBTexZ4Kr70-90" edge="1">
          <mxGeometry relative="1" as="geometry" />
        </mxCell>
        <mxCell id="zyvCb6m9SqBTexZ4Kr70-88" value="CALL&lt;div&gt;inter-polation&lt;/div&gt;" style="ellipse;whiteSpace=wrap;html=1;fontFamily=Lucida Console;" parent="1" vertex="1">
          <mxGeometry x="400" y="1260" width="80" height="80" as="geometry" />
        </mxCell>
        <mxCell id="zyvCb6m9SqBTexZ4Kr70-93" value="" style="edgeStyle=none;curved=0;rounded=0;orthogonalLoop=1;jettySize=auto;html=1;strokeColor=default;align=center;verticalAlign=middle;fontFamily=Lucida Console;fontSize=12;fontColor=default;labelBackgroundColor=default;startSize=14;endArrow=open;endSize=14;sourcePerimeterSpacing=8;targetPerimeterSpacing=8;" parent="1" source="zyvCb6m9SqBTexZ4Kr70-90" target="zyvCb6m9SqBTexZ4Kr70-92" edge="1">
          <mxGeometry relative="1" as="geometry" />
        </mxCell>
        <mxCell id="zyvCb6m9SqBTexZ4Kr70-90" value="CALL&lt;div&gt;setCountry&lt;/div&gt;" style="ellipse;whiteSpace=wrap;html=1;fontFamily=Lucida Console;" parent="1" vertex="1">
          <mxGeometry x="400" y="1440" width="80" height="80" as="geometry" />
        </mxCell>
        <mxCell id="zyvCb6m9SqBTexZ4Kr70-243" value="" style="edgeStyle=none;curved=0;rounded=0;orthogonalLoop=1;jettySize=auto;html=1;strokeColor=default;align=center;verticalAlign=middle;fontFamily=Lucida Console;fontSize=12;fontColor=default;labelBackgroundColor=default;startSize=14;endArrow=open;endSize=14;sourcePerimeterSpacing=8;targetPerimeterSpacing=8;" parent="1" source="zyvCb6m9SqBTexZ4Kr70-92" target="zyvCb6m9SqBTexZ4Kr70-242" edge="1">
          <mxGeometry relative="1" as="geometry" />
        </mxCell>
        <mxCell id="zyvCb6m9SqBTexZ4Kr70-92" value="&lt;div&gt;CALL&lt;/div&gt;&lt;div&gt;setChart&lt;/div&gt;" style="ellipse;whiteSpace=wrap;html=1;fontFamily=Lucida Console;" parent="1" vertex="1">
          <mxGeometry x="400" y="1620" width="80" height="80" as="geometry" />
        </mxCell>
        <mxCell id="zyvCb6m9SqBTexZ4Kr70-104" value="" style="edgeStyle=none;curved=0;rounded=0;orthogonalLoop=1;jettySize=auto;html=1;strokeColor=default;align=center;verticalAlign=middle;fontFamily=Lucida Console;fontSize=12;fontColor=default;labelBackgroundColor=default;startSize=14;endArrow=open;endSize=14;sourcePerimeterSpacing=8;targetPerimeterSpacing=8;" parent="1" source="zyvCb6m9SqBTexZ4Kr70-100" target="zyvCb6m9SqBTexZ4Kr70-103" edge="1">
          <mxGeometry relative="1" as="geometry" />
        </mxCell>
        <mxCell id="zyvCb6m9SqBTexZ4Kr70-100" value="graticule background" style="shape=parallelogram;perimeter=parallelogramPerimeter;whiteSpace=wrap;html=1;fixedSize=1;fontFamily=Lucida Console;" parent="1" vertex="1">
          <mxGeometry x="620" y="550" width="120" height="60" as="geometry" />
        </mxCell>
        <mxCell id="zyvCb6m9SqBTexZ4Kr70-103" value="graticule&lt;div&gt;lines&lt;/div&gt;" style="shape=parallelogram;perimeter=parallelogramPerimeter;whiteSpace=wrap;html=1;fixedSize=1;fontFamily=Lucida Console;" parent="1" vertex="1">
          <mxGeometry x="620" y="730" width="120" height="60" as="geometry" />
        </mxCell>
        <mxCell id="zyvCb6m9SqBTexZ4Kr70-111" value="" style="edgeStyle=none;curved=0;rounded=0;orthogonalLoop=1;jettySize=auto;html=1;strokeColor=default;align=center;verticalAlign=middle;fontFamily=Lucida Console;fontSize=12;fontColor=default;labelBackgroundColor=default;startSize=14;endArrow=open;endSize=14;sourcePerimeterSpacing=8;targetPerimeterSpacing=8;" parent="1" source="zyvCb6m9SqBTexZ4Kr70-106" target="zyvCb6m9SqBTexZ4Kr70-110" edge="1">
          <mxGeometry relative="1" as="geometry" />
        </mxCell>
        <mxCell id="zyvCb6m9SqBTexZ4Kr70-106" value="csvKey" style="whiteSpace=wrap;html=1;fontFamily=Lucida Console;" parent="1" vertex="1">
          <mxGeometry x="140" y="1270" width="120" height="60" as="geometry" />
        </mxCell>
        <mxCell id="zyvCb6m9SqBTexZ4Kr70-113" value="" style="edgeStyle=none;curved=0;rounded=0;orthogonalLoop=1;jettySize=auto;html=1;strokeColor=default;align=center;verticalAlign=middle;fontFamily=Lucida Console;fontSize=12;fontColor=default;labelBackgroundColor=default;startSize=14;endArrow=open;endSize=14;sourcePerimeterSpacing=8;targetPerimeterSpacing=8;" parent="1" source="zyvCb6m9SqBTexZ4Kr70-108" target="zyvCb6m9SqBTexZ4Kr70-110" edge="1">
          <mxGeometry relative="1" as="geometry">
            <mxPoint x="-40" y="1260" as="targetPoint" />
            <Array as="points">
              <mxPoint x="-40" y="1120" />
            </Array>
          </mxGeometry>
        </mxCell>
        <mxCell id="zyvCb6m9SqBTexZ4Kr70-108" value="geojsonKey" style="whiteSpace=wrap;html=1;fontFamily=Lucida Console;" parent="1" vertex="1">
          <mxGeometry x="140" y="1090" width="120" height="60" as="geometry" />
        </mxCell>
        <mxCell id="zyvCb6m9SqBTexZ4Kr70-115" value="" style="edgeStyle=none;curved=0;rounded=0;orthogonalLoop=1;jettySize=auto;html=1;strokeColor=default;align=center;verticalAlign=middle;fontFamily=Lucida Console;fontSize=12;fontColor=default;labelBackgroundColor=default;startSize=14;endArrow=open;endSize=14;sourcePerimeterSpacing=8;targetPerimeterSpacing=8;" parent="1" source="zyvCb6m9SqBTexZ4Kr70-110" target="zyvCb6m9SqBTexZ4Kr70-114" edge="1">
          <mxGeometry relative="1" as="geometry" />
        </mxCell>
        <mxCell id="zyvCb6m9SqBTexZ4Kr70-110" value="join data" style="shape=parallelogram;perimeter=parallelogramPerimeter;whiteSpace=wrap;html=1;fixedSize=1;fontFamily=Lucida Console;" parent="1" vertex="1">
          <mxGeometry x="-100" y="1270" width="120" height="60" as="geometry" />
        </mxCell>
        <mxCell id="zyvCb6m9SqBTexZ4Kr70-114" value="return joinedData (1,2,3,4)" style="whiteSpace=wrap;html=1;fontFamily=Lucida Console;" parent="1" vertex="1">
          <mxGeometry x="-100" y="1450" width="120" height="60" as="geometry" />
        </mxCell>
        <mxCell id="zyvCb6m9SqBTexZ4Kr70-116" value="" style="edgeStyle=none;orthogonalLoop=1;jettySize=auto;html=1;rounded=0;strokeColor=default;align=center;verticalAlign=middle;fontFamily=Lucida Console;fontSize=12;fontColor=default;labelBackgroundColor=default;startSize=14;endArrow=open;endSize=14;sourcePerimeterSpacing=8;targetPerimeterSpacing=8;curved=0;dashed=1;dashPattern=8 8;endFill=0;startArrow=none;startFill=0;exitX=0.5;exitY=1;exitDx=0;exitDy=0;" parent="1" source="zyvCb6m9SqBTexZ4Kr70-61" edge="1">
          <mxGeometry width="140" relative="1" as="geometry">
            <mxPoint x="-160" y="1300" as="sourcePoint" />
            <mxPoint x="-40" y="1120" as="targetPoint" />
            <Array as="points" />
          </mxGeometry>
        </mxCell>
        <mxCell id="zyvCb6m9SqBTexZ4Kr70-137" value="" style="edgeStyle=none;curved=0;rounded=0;orthogonalLoop=1;jettySize=auto;html=1;strokeColor=default;align=center;verticalAlign=middle;fontFamily=Lucida Console;fontSize=12;fontColor=default;labelBackgroundColor=default;startSize=14;endArrow=open;endSize=14;sourcePerimeterSpacing=8;targetPerimeterSpacing=8;" parent="1" source="zyvCb6m9SqBTexZ4Kr70-128" target="zyvCb6m9SqBTexZ4Kr70-136" edge="1">
          <mxGeometry relative="1" as="geometry" />
        </mxCell>
        <mxCell id="zyvCb6m9SqBTexZ4Kr70-139" value="" style="edgeStyle=none;curved=0;rounded=0;orthogonalLoop=1;jettySize=auto;html=1;strokeColor=default;align=center;verticalAlign=middle;fontFamily=Lucida Console;fontSize=12;fontColor=default;labelBackgroundColor=default;startSize=14;endArrow=open;endSize=14;sourcePerimeterSpacing=8;targetPerimeterSpacing=8;" parent="1" source="zyvCb6m9SqBTexZ4Kr70-128" target="zyvCb6m9SqBTexZ4Kr70-138" edge="1">
          <mxGeometry relative="1" as="geometry" />
        </mxCell>
        <mxCell id="zyvCb6m9SqBTexZ4Kr70-128" value="ARRAY&lt;div&gt;regions&lt;/div&gt;" style="shape=trapezoid;perimeter=trapezoidPerimeter;whiteSpace=wrap;html=1;fixedSize=1;fontFamily=Lucida Console;" parent="1" vertex="1">
          <mxGeometry x="860" y="910" width="120" height="60" as="geometry" />
        </mxCell>
        <mxCell id="zyvCb6m9SqBTexZ4Kr70-133" value="" style="edgeStyle=none;orthogonalLoop=1;jettySize=auto;html=1;rounded=0;strokeColor=default;align=center;verticalAlign=middle;fontFamily=Lucida Console;fontSize=12;fontColor=default;labelBackgroundColor=default;startSize=14;endArrow=open;endSize=14;sourcePerimeterSpacing=8;targetPerimeterSpacing=8;curved=0;dashed=1;dashPattern=8 8;" parent="1" source="zyvCb6m9SqBTexZ4Kr70-114" edge="1">
          <mxGeometry width="140" relative="1" as="geometry">
            <mxPoint x="20" y="1530" as="sourcePoint" />
            <mxPoint x="920" y="860" as="targetPoint" />
            <Array as="points">
              <mxPoint x="-40" y="1560" />
              <mxPoint x="580" y="1560" />
              <mxPoint x="580" y="860" />
            </Array>
          </mxGeometry>
        </mxCell>
        <mxCell id="zyvCb6m9SqBTexZ4Kr70-136" value="countries by region" style="shape=document;whiteSpace=wrap;html=1;boundedLbl=1;fontFamily=Lucida Console;" parent="1" vertex="1">
          <mxGeometry x="620" y="900" width="120" height="80" as="geometry" />
        </mxCell>
        <mxCell id="zyvCb6m9SqBTexZ4Kr70-141" value="" style="edgeStyle=none;curved=0;rounded=0;orthogonalLoop=1;jettySize=auto;html=1;strokeColor=default;align=center;verticalAlign=middle;fontFamily=Lucida Console;fontSize=12;fontColor=default;labelBackgroundColor=default;startSize=14;endArrow=open;endSize=14;sourcePerimeterSpacing=8;targetPerimeterSpacing=8;" parent="1" source="zyvCb6m9SqBTexZ4Kr70-138" target="zyvCb6m9SqBTexZ4Kr70-140" edge="1">
          <mxGeometry relative="1" as="geometry" />
        </mxCell>
        <mxCell id="zyvCb6m9SqBTexZ4Kr70-142" value="region a" style="edgeLabel;html=1;align=center;verticalAlign=middle;resizable=0;points=[];fontSize=16;strokeColor=default;fontFamily=Lucida Console;fontColor=default;labelBackgroundColor=default;fillColor=default;" parent="zyvCb6m9SqBTexZ4Kr70-141" vertex="1" connectable="0">
          <mxGeometry x="0.0156" y="-3" relative="1" as="geometry">
            <mxPoint x="16" y="3" as="offset" />
          </mxGeometry>
        </mxCell>
        <mxCell id="zyvCb6m9SqBTexZ4Kr70-144" value="" style="edgeStyle=none;curved=0;rounded=0;orthogonalLoop=1;jettySize=auto;html=1;strokeColor=default;align=center;verticalAlign=middle;fontFamily=Lucida Console;fontSize=12;fontColor=default;labelBackgroundColor=default;startSize=14;endArrow=open;endSize=14;sourcePerimeterSpacing=8;targetPerimeterSpacing=8;" parent="1" source="zyvCb6m9SqBTexZ4Kr70-138" target="zyvCb6m9SqBTexZ4Kr70-143" edge="1">
          <mxGeometry relative="1" as="geometry">
            <Array as="points">
              <mxPoint x="920" y="1480" />
            </Array>
          </mxGeometry>
        </mxCell>
        <mxCell id="zyvCb6m9SqBTexZ4Kr70-145" value="region b" style="edgeLabel;html=1;align=center;verticalAlign=middle;resizable=0;points=[];fontSize=16;strokeColor=default;fontFamily=Lucida Console;fontColor=default;labelBackgroundColor=default;fillColor=default;" parent="zyvCb6m9SqBTexZ4Kr70-144" vertex="1" connectable="0">
          <mxGeometry x="0.3344" y="1" relative="1" as="geometry">
            <mxPoint x="-82" y="-1" as="offset" />
          </mxGeometry>
        </mxCell>
        <mxCell id="zyvCb6m9SqBTexZ4Kr70-138" value="IF" style="rhombus;whiteSpace=wrap;html=1;fontFamily=Lucida Console;" parent="1" vertex="1">
          <mxGeometry x="880" y="1080" width="80" height="80" as="geometry" />
        </mxCell>
        <mxCell id="zyvCb6m9SqBTexZ4Kr70-149" value="" style="edgeStyle=none;curved=0;rounded=0;orthogonalLoop=1;jettySize=auto;html=1;strokeColor=default;align=center;verticalAlign=middle;fontFamily=Lucida Console;fontSize=12;fontColor=default;labelBackgroundColor=default;startSize=14;endArrow=open;endSize=14;sourcePerimeterSpacing=8;targetPerimeterSpacing=8;" parent="1" source="zyvCb6m9SqBTexZ4Kr70-140" target="zyvCb6m9SqBTexZ4Kr70-148" edge="1">
          <mxGeometry relative="1" as="geometry" />
        </mxCell>
        <mxCell id="zyvCb6m9SqBTexZ4Kr70-140" value="interpolate" style="shape=parallelogram;perimeter=parallelogramPerimeter;whiteSpace=wrap;html=1;fixedSize=1;fontFamily=Lucida Console;" parent="1" vertex="1">
          <mxGeometry x="620" y="1090" width="120" height="60" as="geometry" />
        </mxCell>
        <mxCell id="zyvCb6m9SqBTexZ4Kr70-147" value="" style="edgeStyle=none;curved=0;rounded=0;orthogonalLoop=1;jettySize=auto;html=1;strokeColor=default;align=center;verticalAlign=middle;fontFamily=Lucida Console;fontSize=12;fontColor=default;labelBackgroundColor=default;startSize=14;endArrow=open;endSize=14;sourcePerimeterSpacing=8;targetPerimeterSpacing=8;" parent="1" source="zyvCb6m9SqBTexZ4Kr70-143" target="zyvCb6m9SqBTexZ4Kr70-146" edge="1">
          <mxGeometry relative="1" as="geometry" />
        </mxCell>
        <mxCell id="zyvCb6m9SqBTexZ4Kr70-143" value="interpolate" style="shape=parallelogram;perimeter=parallelogramPerimeter;whiteSpace=wrap;html=1;fixedSize=1;fontFamily=Lucida Console;" parent="1" vertex="1">
          <mxGeometry x="620" y="1450" width="120" height="60" as="geometry" />
        </mxCell>
        <mxCell id="zyvCb6m9SqBTexZ4Kr70-146" value="colorB" style="whiteSpace=wrap;html=1;fontFamily=Lucida Console;" parent="1" vertex="1">
          <mxGeometry x="620" y="1630" width="120" height="60" as="geometry" />
        </mxCell>
        <mxCell id="zyvCb6m9SqBTexZ4Kr70-148" value="colorA" style="whiteSpace=wrap;html=1;fontFamily=Lucida Console;" parent="1" vertex="1">
          <mxGeometry x="620" y="1270" width="120" height="60" as="geometry" />
        </mxCell>
        <mxCell id="zyvCb6m9SqBTexZ4Kr70-151" value="" style="edgeStyle=none;orthogonalLoop=1;jettySize=auto;html=1;rounded=0;strokeColor=default;align=center;verticalAlign=middle;fontFamily=Lucida Console;fontSize=12;fontColor=default;labelBackgroundColor=default;startSize=14;endArrow=open;endSize=14;sourcePerimeterSpacing=8;targetPerimeterSpacing=8;curved=0;dashed=1;dashPattern=8 8;" parent="1" edge="1">
          <mxGeometry width="140" relative="1" as="geometry">
            <mxPoint x="920" y="1480" as="sourcePoint" />
            <mxPoint x="920" y="1620" as="targetPoint" />
            <Array as="points" />
          </mxGeometry>
        </mxCell>
        <mxCell id="zyvCb6m9SqBTexZ4Kr70-152" value="etc." style="edgeLabel;html=1;align=center;verticalAlign=middle;resizable=0;points=[];fontSize=16;strokeColor=default;fontFamily=Lucida Console;fontColor=default;labelBackgroundColor=default;fillColor=default;" parent="zyvCb6m9SqBTexZ4Kr70-151" vertex="1" connectable="0">
          <mxGeometry x="0.0183" y="1" relative="1" as="geometry">
            <mxPoint x="-1" y="-11" as="offset" />
          </mxGeometry>
        </mxCell>
        <mxCell id="zyvCb6m9SqBTexZ4Kr70-164" value="" style="edgeStyle=none;curved=0;rounded=0;orthogonalLoop=1;jettySize=auto;html=1;strokeColor=default;align=center;verticalAlign=middle;fontFamily=Lucida Console;fontSize=12;fontColor=default;labelBackgroundColor=default;startSize=14;endArrow=open;endSize=14;sourcePerimeterSpacing=8;targetPerimeterSpacing=8;" parent="1" source="zyvCb6m9SqBTexZ4Kr70-153" target="zyvCb6m9SqBTexZ4Kr70-163" edge="1">
          <mxGeometry relative="1" as="geometry" />
        </mxCell>
        <mxCell id="zyvCb6m9SqBTexZ4Kr70-153" value="FUNCTION&lt;div&gt;setCountry&lt;/div&gt;" style="shape=hexagon;perimeter=hexagonPerimeter2;whiteSpace=wrap;html=1;fixedSize=1;fontFamily=Lucida Console;" parent="1" vertex="1">
          <mxGeometry x="1100" y="340" width="120" height="80" as="geometry" />
        </mxCell>
        <mxCell id="zyvCb6m9SqBTexZ4Kr70-159" value="&lt;div&gt;&lt;div&gt;set&amp;nbsp;&lt;/div&gt;&lt;div&gt;projection&lt;/div&gt;&lt;/div&gt;" style="shape=parallelogram;perimeter=parallelogramPerimeter;whiteSpace=wrap;html=1;fixedSize=1;fontFamily=Lucida Console;" parent="1" vertex="1">
          <mxGeometry x="1340" y="550" width="120" height="60" as="geometry" />
        </mxCell>
        <mxCell id="zyvCb6m9SqBTexZ4Kr70-165" value="" style="edgeStyle=none;curved=0;rounded=0;orthogonalLoop=1;jettySize=auto;html=1;strokeColor=default;align=center;verticalAlign=middle;fontFamily=Lucida Console;fontSize=12;fontColor=default;labelBackgroundColor=default;startSize=14;endArrow=open;endSize=14;sourcePerimeterSpacing=8;targetPerimeterSpacing=8;" parent="1" source="zyvCb6m9SqBTexZ4Kr70-163" target="zyvCb6m9SqBTexZ4Kr70-159" edge="1">
          <mxGeometry relative="1" as="geometry" />
        </mxCell>
        <mxCell id="zyvCb6m9SqBTexZ4Kr70-171" value="" style="edgeStyle=none;curved=0;rounded=0;orthogonalLoop=1;jettySize=auto;html=1;strokeColor=default;align=center;verticalAlign=middle;fontFamily=Lucida Console;fontSize=12;fontColor=default;labelBackgroundColor=default;startSize=14;endArrow=open;endSize=14;sourcePerimeterSpacing=8;targetPerimeterSpacing=8;" parent="1" source="zyvCb6m9SqBTexZ4Kr70-163" target="zyvCb6m9SqBTexZ4Kr70-170" edge="1">
          <mxGeometry relative="1" as="geometry" />
        </mxCell>
        <mxCell id="zyvCb6m9SqBTexZ4Kr70-163" value="drawBoundaries" style="shape=parallelogram;perimeter=parallelogramPerimeter;whiteSpace=wrap;html=1;fixedSize=1;fontFamily=Lucida Console;" parent="1" vertex="1">
          <mxGeometry x="1100" y="550" width="120" height="60" as="geometry" />
        </mxCell>
        <mxCell id="zyvCb6m9SqBTexZ4Kr70-173" value="" style="edgeStyle=none;curved=0;rounded=0;orthogonalLoop=1;jettySize=auto;html=1;strokeColor=default;align=center;verticalAlign=middle;fontFamily=Lucida Console;fontSize=12;fontColor=default;labelBackgroundColor=default;startSize=14;endArrow=open;endSize=14;sourcePerimeterSpacing=8;targetPerimeterSpacing=8;" parent="1" source="zyvCb6m9SqBTexZ4Kr70-170" target="zyvCb6m9SqBTexZ4Kr70-172" edge="1">
          <mxGeometry relative="1" as="geometry" />
        </mxCell>
        <mxCell id="zyvCb6m9SqBTexZ4Kr70-176" value="" style="edgeStyle=none;curved=0;rounded=0;orthogonalLoop=1;jettySize=auto;html=1;strokeColor=default;align=center;verticalAlign=middle;fontFamily=Lucida Console;fontSize=12;fontColor=default;labelBackgroundColor=default;startSize=14;endArrow=open;endSize=14;sourcePerimeterSpacing=8;targetPerimeterSpacing=8;" parent="1" source="zyvCb6m9SqBTexZ4Kr70-170" target="zyvCb6m9SqBTexZ4Kr70-225" edge="1">
          <mxGeometry relative="1" as="geometry">
            <mxPoint x="1342" y="940" as="targetPoint" />
            <Array as="points">
              <mxPoint x="1280" y="760" />
              <mxPoint x="1280" y="940" />
            </Array>
          </mxGeometry>
        </mxCell>
        <mxCell id="zyvCb6m9SqBTexZ4Kr70-182" value="" style="edgeStyle=none;curved=0;rounded=0;orthogonalLoop=1;jettySize=auto;html=1;strokeColor=default;align=center;verticalAlign=middle;fontFamily=Lucida Console;fontSize=12;fontColor=default;labelBackgroundColor=default;startSize=14;endArrow=open;endSize=14;sourcePerimeterSpacing=8;targetPerimeterSpacing=8;" parent="1" source="zyvCb6m9SqBTexZ4Kr70-170" target="zyvCb6m9SqBTexZ4Kr70-181" edge="1">
          <mxGeometry relative="1" as="geometry" />
        </mxCell>
        <mxCell id="zyvCb6m9SqBTexZ4Kr70-170" value="countries" style="whiteSpace=wrap;html=1;fontFamily=Lucida Console;" parent="1" vertex="1">
          <mxGeometry x="1100" y="730" width="120" height="60" as="geometry" />
        </mxCell>
        <mxCell id="zyvCb6m9SqBTexZ4Kr70-172" value="fill" style="shape=parallelogram;perimeter=parallelogramPerimeter;whiteSpace=wrap;html=1;fixedSize=1;fontFamily=Lucida Console;" parent="1" vertex="1">
          <mxGeometry x="1340" y="730" width="120" height="60" as="geometry" />
        </mxCell>
        <mxCell id="zyvCb6m9SqBTexZ4Kr70-174" value="" style="edgeStyle=none;orthogonalLoop=1;jettySize=auto;html=1;rounded=0;strokeColor=default;align=center;verticalAlign=middle;fontFamily=Lucida Console;fontSize=12;fontColor=default;labelBackgroundColor=default;startSize=14;endArrow=open;endSize=14;sourcePerimeterSpacing=8;targetPerimeterSpacing=8;curved=0;exitX=0.5;exitY=1;exitDx=0;exitDy=0;dashed=1;dashPattern=8 8;" parent="1" source="zyvCb6m9SqBTexZ4Kr70-172" edge="1">
          <mxGeometry width="140" relative="1" as="geometry">
            <mxPoint x="1270" y="930" as="sourcePoint" />
            <mxPoint x="800" y="820" as="targetPoint" />
            <Array as="points">
              <mxPoint x="1400" y="820" />
              <mxPoint x="1040" y="820" />
            </Array>
          </mxGeometry>
        </mxCell>
        <mxCell id="zyvCb6m9SqBTexZ4Kr70-188" value="" style="edgeStyle=none;curved=0;rounded=0;orthogonalLoop=1;jettySize=auto;html=1;strokeColor=default;align=center;verticalAlign=middle;fontFamily=Lucida Console;fontSize=12;fontColor=default;labelBackgroundColor=default;startSize=14;endArrow=open;endSize=14;sourcePerimeterSpacing=8;targetPerimeterSpacing=8;" parent="1" source="zyvCb6m9SqBTexZ4Kr70-225" target="zyvCb6m9SqBTexZ4Kr70-187" edge="1">
          <mxGeometry relative="1" as="geometry">
            <mxPoint x="1400" y="978.0000000000005" as="sourcePoint" />
          </mxGeometry>
        </mxCell>
        <mxCell id="zyvCb6m9SqBTexZ4Kr70-201" value="" style="edgeStyle=none;curved=0;rounded=0;orthogonalLoop=1;jettySize=auto;html=1;strokeColor=default;align=center;verticalAlign=middle;fontFamily=Lucida Console;fontSize=12;fontColor=default;labelBackgroundColor=default;startSize=14;endArrow=open;endSize=14;sourcePerimeterSpacing=8;targetPerimeterSpacing=8;" parent="1" source="zyvCb6m9SqBTexZ4Kr70-177" target="zyvCb6m9SqBTexZ4Kr70-200" edge="1">
          <mxGeometry relative="1" as="geometry" />
        </mxCell>
        <mxCell id="zyvCb6m9SqBTexZ4Kr70-177" value="FUNCTION&lt;div&gt;setChart&lt;/div&gt;" style="shape=hexagon;perimeter=hexagonPerimeter2;whiteSpace=wrap;html=1;fixedSize=1;fontFamily=Lucida Console;" parent="1" vertex="1">
          <mxGeometry x="1580" y="340" width="120" height="80" as="geometry" />
        </mxCell>
        <mxCell id="zyvCb6m9SqBTexZ4Kr70-186" value="" style="edgeStyle=none;curved=0;rounded=0;orthogonalLoop=1;jettySize=auto;html=1;strokeColor=default;align=center;verticalAlign=middle;fontFamily=Lucida Console;fontSize=12;fontColor=default;labelBackgroundColor=default;startSize=14;endArrow=open;endSize=14;sourcePerimeterSpacing=8;targetPerimeterSpacing=8;" parent="1" source="zyvCb6m9SqBTexZ4Kr70-181" target="zyvCb6m9SqBTexZ4Kr70-185" edge="1">
          <mxGeometry relative="1" as="geometry" />
        </mxCell>
        <mxCell id="zyvCb6m9SqBTexZ4Kr70-181" value="&lt;div&gt;FUNCTION&lt;/div&gt;&lt;div&gt;setSize&lt;/div&gt;" style="shape=hexagon;perimeter=hexagonPerimeter2;whiteSpace=wrap;html=1;fixedSize=1;fontFamily=Lucida Console;" parent="1" vertex="1">
          <mxGeometry x="1100" y="900" width="120" height="80" as="geometry" />
        </mxCell>
        <mxCell id="zyvCb6m9SqBTexZ4Kr70-190" value="" style="edgeStyle=none;curved=0;rounded=0;orthogonalLoop=1;jettySize=auto;html=1;strokeColor=default;align=center;verticalAlign=middle;fontFamily=Lucida Console;fontSize=12;fontColor=default;labelBackgroundColor=default;startSize=14;endArrow=open;endSize=14;sourcePerimeterSpacing=8;targetPerimeterSpacing=8;" parent="1" source="zyvCb6m9SqBTexZ4Kr70-185" target="zyvCb6m9SqBTexZ4Kr70-189" edge="1">
          <mxGeometry relative="1" as="geometry" />
        </mxCell>
        <mxCell id="zyvCb6m9SqBTexZ4Kr70-185" value="countries" style="whiteSpace=wrap;html=1;fontFamily=Lucida Console;" parent="1" vertex="1">
          <mxGeometry x="1100" y="1090" width="120" height="60" as="geometry" />
        </mxCell>
        <mxCell id="zyvCb6m9SqBTexZ4Kr70-233" value="" style="edgeStyle=none;curved=0;rounded=0;orthogonalLoop=1;jettySize=auto;html=1;strokeColor=default;align=center;verticalAlign=middle;fontFamily=Lucida Console;fontSize=12;fontColor=default;labelBackgroundColor=default;startSize=14;endArrow=open;endSize=14;sourcePerimeterSpacing=8;targetPerimeterSpacing=8;" parent="1" source="zyvCb6m9SqBTexZ4Kr70-187" target="zyvCb6m9SqBTexZ4Kr70-232" edge="1">
          <mxGeometry relative="1" as="geometry" />
        </mxCell>
        <mxCell id="zyvCb6m9SqBTexZ4Kr70-187" value="FUNCTION&lt;div&gt;mouseMap&lt;/div&gt;" style="shape=hexagon;perimeter=hexagonPerimeter2;whiteSpace=wrap;html=1;fixedSize=1;fontFamily=Lucida Console;" parent="1" vertex="1">
          <mxGeometry x="1340" y="1080" width="120" height="80" as="geometry" />
        </mxCell>
        <mxCell id="zyvCb6m9SqBTexZ4Kr70-189" value="getData" style="shape=parallelogram;perimeter=parallelogramPerimeter;whiteSpace=wrap;html=1;fixedSize=1;fontFamily=Lucida Console;" parent="1" vertex="1">
          <mxGeometry x="1100" y="1270" width="120" height="60" as="geometry" />
        </mxCell>
        <mxCell id="zyvCb6m9SqBTexZ4Kr70-191" value="" style="edgeStyle=none;orthogonalLoop=1;jettySize=auto;html=1;rounded=0;strokeColor=default;align=center;verticalAlign=middle;fontFamily=Lucida Console;fontSize=12;fontColor=default;labelBackgroundColor=default;startSize=14;endArrow=open;endSize=14;sourcePerimeterSpacing=8;targetPerimeterSpacing=8;curved=0;dashed=1;dashPattern=8 8;" parent="1" source="zyvCb6m9SqBTexZ4Kr70-88" edge="1">
          <mxGeometry width="140" relative="1" as="geometry">
            <mxPoint x="560" y="840" as="sourcePoint" />
            <mxPoint x="800" y="820" as="targetPoint" />
            <Array as="points">
              <mxPoint x="540" y="1300" />
              <mxPoint x="540" y="820" />
            </Array>
          </mxGeometry>
        </mxCell>
        <mxCell id="zyvCb6m9SqBTexZ4Kr70-194" value="" style="edgeStyle=none;orthogonalLoop=1;jettySize=auto;html=1;rounded=0;strokeColor=default;align=center;verticalAlign=middle;fontFamily=Lucida Console;fontSize=12;fontColor=default;labelBackgroundColor=default;startSize=14;endArrow=open;endSize=14;sourcePerimeterSpacing=8;targetPerimeterSpacing=8;curved=0;dashed=1;dashPattern=8 8;" parent="1" source="zyvCb6m9SqBTexZ4Kr70-90" target="zyvCb6m9SqBTexZ4Kr70-153" edge="1">
          <mxGeometry width="140" relative="1" as="geometry">
            <mxPoint x="970" y="990" as="sourcePoint" />
            <mxPoint x="1110" y="990" as="targetPoint" />
            <Array as="points">
              <mxPoint x="560" y="1480" />
              <mxPoint x="560" y="840" />
              <mxPoint x="1020" y="840" />
              <mxPoint x="1020" y="440" />
              <mxPoint x="1060" y="440" />
              <mxPoint x="1060" y="380" />
            </Array>
          </mxGeometry>
        </mxCell>
        <mxCell id="zyvCb6m9SqBTexZ4Kr70-196" value="" style="edgeStyle=none;orthogonalLoop=1;jettySize=auto;html=1;rounded=0;strokeColor=default;align=center;verticalAlign=middle;fontFamily=Lucida Console;fontSize=12;fontColor=default;labelBackgroundColor=default;startSize=14;endArrow=open;endSize=14;sourcePerimeterSpacing=8;targetPerimeterSpacing=8;curved=0;dashed=1;dashPattern=8 8;" parent="1" target="zyvCb6m9SqBTexZ4Kr70-40" edge="1">
          <mxGeometry width="140" relative="1" as="geometry">
            <mxPoint x="800" y="820" as="sourcePoint" />
            <mxPoint x="990" y="630" as="targetPoint" />
            <Array as="points">
              <mxPoint x="800" y="380" />
            </Array>
          </mxGeometry>
        </mxCell>
        <mxCell id="zyvCb6m9SqBTexZ4Kr70-197" value="" style="edgeStyle=none;orthogonalLoop=1;jettySize=auto;html=1;rounded=0;strokeColor=default;align=center;verticalAlign=middle;fontFamily=Lucida Console;fontSize=12;fontColor=default;labelBackgroundColor=default;startSize=14;endArrow=open;endSize=14;sourcePerimeterSpacing=8;targetPerimeterSpacing=8;curved=0;dashed=1;dashPattern=8 8;" parent="1" source="zyvCb6m9SqBTexZ4Kr70-92" target="zyvCb6m9SqBTexZ4Kr70-177" edge="1">
          <mxGeometry width="140" relative="1" as="geometry">
            <mxPoint x="1760" y="1160" as="sourcePoint" />
            <mxPoint x="1900" y="1160" as="targetPoint" />
            <Array as="points">
              <mxPoint x="560" y="1660" />
              <mxPoint x="560" y="1720" />
              <mxPoint x="1500" y="1720" />
              <mxPoint x="1500" y="380" />
            </Array>
          </mxGeometry>
        </mxCell>
        <mxCell id="zyvCb6m9SqBTexZ4Kr70-199" value="For access:&amp;nbsp;&lt;div&gt;https://www.drawio.com/&lt;/div&gt;" style="text;html=1;align=center;verticalAlign=middle;resizable=0;points=[];autosize=1;strokeColor=none;fillColor=none;fontSize=12;fontFamily=Lucida Console;fontColor=default;labelBackgroundColor=default;" parent="1" vertex="1">
          <mxGeometry x="-135" y="440" width="190" height="40" as="geometry" />
        </mxCell>
        <mxCell id="zyvCb6m9SqBTexZ4Kr70-205" value="" style="edgeStyle=none;curved=0;rounded=0;orthogonalLoop=1;jettySize=auto;html=1;strokeColor=default;align=center;verticalAlign=middle;fontFamily=Lucida Console;fontSize=12;fontColor=default;labelBackgroundColor=default;startSize=14;endArrow=open;endSize=14;sourcePerimeterSpacing=8;targetPerimeterSpacing=8;" parent="1" source="zyvCb6m9SqBTexZ4Kr70-200" target="zyvCb6m9SqBTexZ4Kr70-204" edge="1">
          <mxGeometry relative="1" as="geometry" />
        </mxCell>
        <mxCell id="zyvCb6m9SqBTexZ4Kr70-213" value="" style="edgeStyle=none;curved=0;rounded=0;orthogonalLoop=1;jettySize=auto;html=1;strokeColor=default;align=center;verticalAlign=middle;fontFamily=Lucida Console;fontSize=12;fontColor=default;labelBackgroundColor=default;startSize=14;endArrow=open;endSize=14;sourcePerimeterSpacing=8;targetPerimeterSpacing=8;" parent="1" source="zyvCb6m9SqBTexZ4Kr70-200" target="zyvCb6m9SqBTexZ4Kr70-212" edge="1">
          <mxGeometry relative="1" as="geometry" />
        </mxCell>
        <mxCell id="zyvCb6m9SqBTexZ4Kr70-200" value="VARIABLES&lt;div&gt;chart size, etc.&lt;/div&gt;" style="rounded=1;whiteSpace=wrap;html=1;fontFamily=Lucida Console;" parent="1" vertex="1">
          <mxGeometry x="1580" y="550" width="120" height="60" as="geometry" />
        </mxCell>
        <mxCell id="zyvCb6m9SqBTexZ4Kr70-204" value="setAxes" style="whiteSpace=wrap;html=1;fontFamily=Lucida Console;rounded=0;" parent="1" vertex="1">
          <mxGeometry x="1820" y="550" width="120" height="60" as="geometry" />
        </mxCell>
        <mxCell id="zyvCb6m9SqBTexZ4Kr70-206" value="setScale" style="rounded=0;whiteSpace=wrap;html=1;fontFamily=Lucida Console;" parent="1" vertex="1">
          <mxGeometry x="1820" y="730" width="120" height="60" as="geometry" />
        </mxCell>
        <mxCell id="zyvCb6m9SqBTexZ4Kr70-208" value="" style="edgeStyle=none;orthogonalLoop=1;jettySize=auto;html=1;rounded=0;strokeColor=default;align=center;verticalAlign=middle;fontFamily=Lucida Console;fontSize=12;fontColor=default;labelBackgroundColor=default;startSize=14;endArrow=open;endSize=14;sourcePerimeterSpacing=8;targetPerimeterSpacing=8;curved=0;" parent="1" source="zyvCb6m9SqBTexZ4Kr70-200" target="zyvCb6m9SqBTexZ4Kr70-206" edge="1">
          <mxGeometry width="140" relative="1" as="geometry">
            <mxPoint x="1530" y="720" as="sourcePoint" />
            <mxPoint x="1810" y="720" as="targetPoint" />
            <Array as="points">
              <mxPoint x="1760" y="580" />
              <mxPoint x="1760" y="760" />
            </Array>
          </mxGeometry>
        </mxCell>
        <mxCell id="zyvCb6m9SqBTexZ4Kr70-215" value="" style="edgeStyle=none;curved=0;rounded=0;orthogonalLoop=1;jettySize=auto;html=1;strokeColor=default;align=center;verticalAlign=middle;fontFamily=Lucida Console;fontSize=12;fontColor=default;labelBackgroundColor=default;startSize=14;endArrow=open;endSize=14;sourcePerimeterSpacing=8;targetPerimeterSpacing=8;" parent="1" source="zyvCb6m9SqBTexZ4Kr70-212" target="zyvCb6m9SqBTexZ4Kr70-214" edge="1">
          <mxGeometry relative="1" as="geometry">
            <Array as="points">
              <mxPoint x="1640" y="940" />
            </Array>
          </mxGeometry>
        </mxCell>
        <mxCell id="zyvCb6m9SqBTexZ4Kr70-212" value="append objects to chart" style="shape=parallelogram;perimeter=parallelogramPerimeter;whiteSpace=wrap;html=1;fixedSize=1;fontFamily=Lucida Console;rounded=0;shadow=0;" parent="1" vertex="1">
          <mxGeometry x="1580" y="730" width="120" height="60" as="geometry" />
        </mxCell>
        <mxCell id="zyvCb6m9SqBTexZ4Kr70-217" value="" style="edgeStyle=none;curved=0;rounded=0;orthogonalLoop=1;jettySize=auto;html=1;strokeColor=default;align=center;verticalAlign=middle;fontFamily=Lucida Console;fontSize=12;fontColor=default;labelBackgroundColor=default;startSize=14;endArrow=open;endSize=14;sourcePerimeterSpacing=8;targetPerimeterSpacing=8;" parent="1" source="zyvCb6m9SqBTexZ4Kr70-214" target="zyvCb6m9SqBTexZ4Kr70-216" edge="1">
          <mxGeometry relative="1" as="geometry" />
        </mxCell>
        <mxCell id="zyvCb6m9SqBTexZ4Kr70-214" value="create points" style="shape=parallelogram;perimeter=parallelogramPerimeter;whiteSpace=wrap;html=1;fixedSize=1;fontFamily=Lucida Console;rounded=0;shadow=0;" parent="1" vertex="1">
          <mxGeometry x="1820" y="910" width="120" height="60" as="geometry" />
        </mxCell>
        <mxCell id="zyvCb6m9SqBTexZ4Kr70-219" value="" style="edgeStyle=none;curved=0;rounded=0;orthogonalLoop=1;jettySize=auto;html=1;strokeColor=default;align=center;verticalAlign=middle;fontFamily=Lucida Console;fontSize=12;fontColor=default;labelBackgroundColor=default;startSize=14;endArrow=open;endSize=14;sourcePerimeterSpacing=8;targetPerimeterSpacing=8;" parent="1" source="zyvCb6m9SqBTexZ4Kr70-216" target="zyvCb6m9SqBTexZ4Kr70-218" edge="1">
          <mxGeometry relative="1" as="geometry" />
        </mxCell>
        <mxCell id="zyvCb6m9SqBTexZ4Kr70-216" value="group points" style="shape=parallelogram;perimeter=parallelogramPerimeter;whiteSpace=wrap;html=1;fixedSize=1;fontFamily=Lucida Console;rounded=0;shadow=0;" parent="1" vertex="1">
          <mxGeometry x="1820" y="1090" width="120" height="60" as="geometry" />
        </mxCell>
        <mxCell id="zyvCb6m9SqBTexZ4Kr70-218" value="draw line connecting points" style="shape=parallelogram;perimeter=parallelogramPerimeter;whiteSpace=wrap;html=1;fixedSize=1;fontFamily=Lucida Console;rounded=0;shadow=0;" parent="1" vertex="1">
          <mxGeometry x="1820" y="1270" width="120" height="60" as="geometry" />
        </mxCell>
        <mxCell id="zyvCb6m9SqBTexZ4Kr70-223" value="" style="edgeStyle=none;curved=0;rounded=0;orthogonalLoop=1;jettySize=auto;html=1;strokeColor=default;align=center;verticalAlign=middle;fontFamily=Lucida Console;fontSize=12;fontColor=default;labelBackgroundColor=default;startSize=14;endArrow=open;endSize=14;sourcePerimeterSpacing=8;targetPerimeterSpacing=8;" parent="1" source="zyvCb6m9SqBTexZ4Kr70-220" target="zyvCb6m9SqBTexZ4Kr70-222" edge="1">
          <mxGeometry relative="1" as="geometry" />
        </mxCell>
        <mxCell id="zyvCb6m9SqBTexZ4Kr70-220" value="line&amp;nbsp;&lt;div&gt;selection&lt;/div&gt;" style="shape=parallelogram;perimeter=parallelogramPerimeter;whiteSpace=wrap;html=1;fixedSize=1;strokeColor=default;align=center;verticalAlign=middle;fontFamily=Lucida Console;fontSize=12;fontColor=default;labelBackgroundColor=default;fillColor=default;" parent="1" vertex="1">
          <mxGeometry x="1580" y="1090" width="120" height="60" as="geometry" />
        </mxCell>
        <mxCell id="zyvCb6m9SqBTexZ4Kr70-221" value="" style="edgeStyle=none;orthogonalLoop=1;jettySize=auto;html=1;rounded=0;strokeColor=default;align=center;verticalAlign=middle;fontFamily=Lucida Console;fontSize=12;fontColor=default;labelBackgroundColor=default;startSize=14;endArrow=open;endSize=14;sourcePerimeterSpacing=8;targetPerimeterSpacing=8;curved=0;" parent="1" source="zyvCb6m9SqBTexZ4Kr70-212" target="zyvCb6m9SqBTexZ4Kr70-220" edge="1">
          <mxGeometry width="140" relative="1" as="geometry">
            <mxPoint x="1570" y="1030" as="sourcePoint" />
            <mxPoint x="1710" y="1030" as="targetPoint" />
            <Array as="points" />
          </mxGeometry>
        </mxCell>
        <mxCell id="zyvCb6m9SqBTexZ4Kr70-227" value="" style="edgeStyle=none;curved=0;rounded=0;orthogonalLoop=1;jettySize=auto;html=1;strokeColor=default;align=center;verticalAlign=middle;fontFamily=Lucida Console;fontSize=12;fontColor=default;labelBackgroundColor=default;startSize=14;endArrow=open;endSize=14;sourcePerimeterSpacing=8;targetPerimeterSpacing=8;" parent="1" source="zyvCb6m9SqBTexZ4Kr70-222" target="zyvCb6m9SqBTexZ4Kr70-226" edge="1">
          <mxGeometry relative="1" as="geometry" />
        </mxCell>
        <mxCell id="zyvCb6m9SqBTexZ4Kr70-222" value="APPEND&lt;div&gt;circle&lt;/div&gt;" style="whiteSpace=wrap;html=1;fontFamily=Lucida Console;labelBackgroundColor=default;" parent="1" vertex="1">
          <mxGeometry x="1580" y="1270" width="120" height="60" as="geometry" />
        </mxCell>
        <mxCell id="zyvCb6m9SqBTexZ4Kr70-225" value="APPEND&lt;div&gt;retrieve&lt;/div&gt;" style="whiteSpace=wrap;html=1;strokeColor=default;align=center;verticalAlign=middle;fontFamily=Lucida Console;fontSize=12;fontColor=default;labelBackgroundColor=default;fillColor=default;" parent="1" vertex="1">
          <mxGeometry x="1340" y="910" width="120" height="60" as="geometry" />
        </mxCell>
        <mxCell id="zyvCb6m9SqBTexZ4Kr70-229" value="" style="edgeStyle=none;curved=0;rounded=0;orthogonalLoop=1;jettySize=auto;html=1;strokeColor=default;align=center;verticalAlign=middle;fontFamily=Lucida Console;fontSize=12;fontColor=default;labelBackgroundColor=default;startSize=14;endArrow=open;endSize=14;sourcePerimeterSpacing=8;targetPerimeterSpacing=8;" parent="1" source="zyvCb6m9SqBTexZ4Kr70-226" target="zyvCb6m9SqBTexZ4Kr70-228" edge="1">
          <mxGeometry relative="1" as="geometry" />
        </mxCell>
        <mxCell id="zyvCb6m9SqBTexZ4Kr70-226" value="APPEND&lt;div&gt;text&lt;/div&gt;" style="whiteSpace=wrap;html=1;fontFamily=Lucida Console;labelBackgroundColor=default;" parent="1" vertex="1">
          <mxGeometry x="1580" y="1450" width="120" height="60" as="geometry" />
        </mxCell>
        <mxCell id="zyvCb6m9SqBTexZ4Kr70-231" value="" style="edgeStyle=none;curved=0;rounded=0;orthogonalLoop=1;jettySize=auto;html=1;strokeColor=default;align=center;verticalAlign=middle;fontFamily=Lucida Console;fontSize=12;fontColor=default;labelBackgroundColor=default;startSize=14;endArrow=open;endSize=14;sourcePerimeterSpacing=8;targetPerimeterSpacing=8;" parent="1" source="zyvCb6m9SqBTexZ4Kr70-228" target="zyvCb6m9SqBTexZ4Kr70-230" edge="1">
          <mxGeometry relative="1" as="geometry" />
        </mxCell>
        <mxCell id="zyvCb6m9SqBTexZ4Kr70-228" value="mouseEvents" style="shape=parallelogram;perimeter=parallelogramPerimeter;whiteSpace=wrap;html=1;fixedSize=1;fontFamily=Lucida Console;labelBackgroundColor=default;" parent="1" vertex="1">
          <mxGeometry x="1580" y="1630" width="120" height="60" as="geometry" />
        </mxCell>
        <mxCell id="zyvCb6m9SqBTexZ4Kr70-235" value="" style="edgeStyle=none;curved=0;rounded=0;orthogonalLoop=1;jettySize=auto;html=1;strokeColor=default;align=center;verticalAlign=middle;fontFamily=Lucida Console;fontSize=12;fontColor=default;labelBackgroundColor=default;startSize=14;endArrow=open;endSize=14;sourcePerimeterSpacing=8;targetPerimeterSpacing=8;" parent="1" source="zyvCb6m9SqBTexZ4Kr70-230" target="zyvCb6m9SqBTexZ4Kr70-234" edge="1">
          <mxGeometry relative="1" as="geometry" />
        </mxCell>
        <mxCell id="zyvCb6m9SqBTexZ4Kr70-237" value="" style="edgeStyle=none;curved=0;rounded=0;orthogonalLoop=1;jettySize=auto;html=1;strokeColor=default;align=center;verticalAlign=middle;fontFamily=Lucida Console;fontSize=12;fontColor=default;labelBackgroundColor=default;startSize=14;endArrow=open;endSize=14;sourcePerimeterSpacing=8;targetPerimeterSpacing=8;" parent="1" source="zyvCb6m9SqBTexZ4Kr70-230" target="zyvCb6m9SqBTexZ4Kr70-236" edge="1">
          <mxGeometry relative="1" as="geometry" />
        </mxCell>
        <mxCell id="zyvCb6m9SqBTexZ4Kr70-230" value="FUNCTION&lt;div&gt;mouseChart&lt;/div&gt;" style="shape=hexagon;perimeter=hexagonPerimeter2;whiteSpace=wrap;html=1;fixedSize=1;fontFamily=Lucida Console;labelBackgroundColor=default;" parent="1" vertex="1">
          <mxGeometry x="1580" y="1800" width="120" height="80" as="geometry" />
        </mxCell>
        <mxCell id="zyvCb6m9SqBTexZ4Kr70-232" value="highlight country / popup POIs" style="shape=document;whiteSpace=wrap;html=1;boundedLbl=1;fontFamily=Lucida Console;" parent="1" vertex="1">
          <mxGeometry x="1340" y="1260" width="120" height="80" as="geometry" />
        </mxCell>
        <mxCell id="zyvCb6m9SqBTexZ4Kr70-234" value="highlight line / popup POIs" style="shape=document;whiteSpace=wrap;html=1;boundedLbl=1;fontFamily=Lucida Console;labelBackgroundColor=default;" parent="1" vertex="1">
          <mxGeometry x="1820" y="1800" width="120" height="80" as="geometry" />
        </mxCell>
        <mxCell id="zyvCb6m9SqBTexZ4Kr70-236" value="highlight alternate" style="shape=document;whiteSpace=wrap;html=1;boundedLbl=1;fontFamily=Lucida Console;labelBackgroundColor=default;" parent="1" vertex="1">
          <mxGeometry x="1340" y="1800" width="120" height="80" as="geometry" />
        </mxCell>
        <mxCell id="zyvCb6m9SqBTexZ4Kr70-238" value="" style="edgeStyle=none;orthogonalLoop=1;jettySize=auto;html=1;rounded=0;strokeColor=default;align=center;verticalAlign=middle;fontFamily=Lucida Console;fontSize=12;fontColor=default;labelBackgroundColor=default;startSize=14;endArrow=open;endSize=14;sourcePerimeterSpacing=8;targetPerimeterSpacing=8;curved=0;" parent="1" source="zyvCb6m9SqBTexZ4Kr70-232" target="zyvCb6m9SqBTexZ4Kr70-236" edge="1">
          <mxGeometry width="140" relative="1" as="geometry">
            <mxPoint x="1150" y="1500" as="sourcePoint" />
            <mxPoint x="1290" y="1500" as="targetPoint" />
            <Array as="points" />
          </mxGeometry>
        </mxCell>
        <mxCell id="zyvCb6m9SqBTexZ4Kr70-241" value="" style="edgeStyle=none;curved=0;rounded=0;orthogonalLoop=1;jettySize=auto;html=1;strokeColor=default;align=center;verticalAlign=middle;fontFamily=Lucida Console;fontSize=12;fontColor=default;labelBackgroundColor=default;startSize=14;endArrow=open;endSize=14;sourcePerimeterSpacing=8;targetPerimeterSpacing=8;" parent="1" source="zyvCb6m9SqBTexZ4Kr70-240" target="zyvCb6m9SqBTexZ4Kr70-236" edge="1">
          <mxGeometry relative="1" as="geometry" />
        </mxCell>
        <mxCell id="zyvCb6m9SqBTexZ4Kr70-240" value="map be one function" style="shape=document;whiteSpace=wrap;html=1;boundedLbl=1;strokeColor=default;align=center;verticalAlign=middle;fontFamily=Lucida Console;fontSize=12;fontColor=default;labelBackgroundColor=default;fillColor=default;" parent="1" vertex="1">
          <mxGeometry x="1100" y="1800" width="120" height="80" as="geometry" />
        </mxCell>
        <mxCell id="zyvCb6m9SqBTexZ4Kr70-242" value="&lt;div&gt;CALL&lt;/div&gt;&lt;div&gt;setPOI&lt;/div&gt;" style="ellipse;whiteSpace=wrap;html=1;fontFamily=Lucida Console;" parent="1" vertex="1">
          <mxGeometry x="400" y="1800" width="80" height="80" as="geometry" />
        </mxCell>
        <mxCell id="zyvCb6m9SqBTexZ4Kr70-247" value="" style="edgeStyle=none;curved=0;rounded=0;orthogonalLoop=1;jettySize=auto;html=1;strokeColor=default;align=center;verticalAlign=middle;fontFamily=Lucida Console;fontSize=12;fontColor=default;labelBackgroundColor=default;startSize=14;endArrow=open;endSize=14;sourcePerimeterSpacing=8;targetPerimeterSpacing=8;" parent="1" source="zyvCb6m9SqBTexZ4Kr70-244" target="zyvCb6m9SqBTexZ4Kr70-246" edge="1">
          <mxGeometry relative="1" as="geometry" />
        </mxCell>
        <mxCell id="zyvCb6m9SqBTexZ4Kr70-244" value="FUNCTION&lt;div&gt;setPOI&lt;/div&gt;" style="shape=hexagon;perimeter=hexagonPerimeter2;whiteSpace=wrap;html=1;fixedSize=1;strokeColor=default;align=center;verticalAlign=middle;fontFamily=Lucida Console;fontSize=12;fontColor=default;labelBackgroundColor=default;fillColor=default;" parent="1" vertex="1">
          <mxGeometry x="2060" y="340" width="120" height="80" as="geometry" />
        </mxCell>
        <mxCell id="zyvCb6m9SqBTexZ4Kr70-245" value="" style="edgeStyle=none;orthogonalLoop=1;jettySize=auto;html=1;rounded=0;strokeColor=default;align=center;verticalAlign=middle;fontFamily=Lucida Console;fontSize=12;fontColor=default;labelBackgroundColor=default;startSize=14;endArrow=open;endSize=14;sourcePerimeterSpacing=8;targetPerimeterSpacing=8;curved=0;dashed=1;dashPattern=8 8;" parent="1" source="zyvCb6m9SqBTexZ4Kr70-242" target="zyvCb6m9SqBTexZ4Kr70-244" edge="1">
          <mxGeometry width="140" relative="1" as="geometry">
            <mxPoint x="610" y="1830" as="sourcePoint" />
            <mxPoint x="750" y="1830" as="targetPoint" />
            <Array as="points">
              <mxPoint x="560" y="1840" />
              <mxPoint x="560" y="1760" />
              <mxPoint x="1540" y="1760" />
              <mxPoint x="1540" y="460" />
              <mxPoint x="2000" y="460" />
              <mxPoint x="2000" y="380" />
            </Array>
          </mxGeometry>
        </mxCell>
        <mxCell id="zyvCb6m9SqBTexZ4Kr70-254" value="" style="edgeStyle=none;curved=0;rounded=0;orthogonalLoop=1;jettySize=auto;html=1;strokeColor=default;align=center;verticalAlign=middle;fontFamily=Lucida Console;fontSize=12;fontColor=default;labelBackgroundColor=default;startSize=14;endArrow=open;endSize=14;sourcePerimeterSpacing=8;targetPerimeterSpacing=8;" parent="1" source="zyvCb6m9SqBTexZ4Kr70-246" target="zyvCb6m9SqBTexZ4Kr70-253" edge="1">
          <mxGeometry relative="1" as="geometry" />
        </mxCell>
        <mxCell id="zyvCb6m9SqBTexZ4Kr70-246" value="current view" style="shape=parallelogram;perimeter=parallelogramPerimeter;whiteSpace=wrap;html=1;fixedSize=1;fontFamily=Lucida Console;labelBackgroundColor=default;" parent="1" vertex="1">
          <mxGeometry x="2060" y="550" width="120" height="60" as="geometry" />
        </mxCell>
        <mxCell id="zyvCb6m9SqBTexZ4Kr70-250" value="" style="edgeStyle=none;curved=0;rounded=0;orthogonalLoop=1;jettySize=auto;html=1;strokeColor=default;align=center;verticalAlign=middle;fontFamily=Lucida Console;fontSize=12;fontColor=default;labelBackgroundColor=default;startSize=14;endArrow=open;endSize=14;sourcePerimeterSpacing=8;targetPerimeterSpacing=8;" parent="1" source="zyvCb6m9SqBTexZ4Kr70-248" target="zyvCb6m9SqBTexZ4Kr70-246" edge="1">
          <mxGeometry relative="1" as="geometry" />
        </mxCell>
        <mxCell id="zyvCb6m9SqBTexZ4Kr70-248" value="ARRAY&lt;div&gt;currentCountry&lt;/div&gt;" style="shape=trapezoid;perimeter=trapezoidPerimeter;whiteSpace=wrap;html=1;fixedSize=1;strokeColor=default;align=center;verticalAlign=middle;fontFamily=Lucida Console;fontSize=12;fontColor=default;labelBackgroundColor=none;fillColor=default;" parent="1" vertex="1">
          <mxGeometry x="2300" y="550" width="120" height="60" as="geometry" />
        </mxCell>
        <mxCell id="zyvCb6m9SqBTexZ4Kr70-256" value="" style="edgeStyle=none;curved=0;rounded=0;orthogonalLoop=1;jettySize=auto;html=1;strokeColor=default;align=center;verticalAlign=middle;fontFamily=Lucida Console;fontSize=12;fontColor=default;labelBackgroundColor=default;startSize=14;endArrow=open;endSize=14;sourcePerimeterSpacing=8;targetPerimeterSpacing=8;" parent="1" source="zyvCb6m9SqBTexZ4Kr70-253" target="zyvCb6m9SqBTexZ4Kr70-255" edge="1">
          <mxGeometry relative="1" as="geometry" />
        </mxCell>
        <mxCell id="zyvCb6m9SqBTexZ4Kr70-253" value="poiCountry /&lt;div&gt;poiRegion&lt;/div&gt;" style="whiteSpace=wrap;html=1;fontFamily=Lucida Console;labelBackgroundColor=default;" parent="1" vertex="1">
          <mxGeometry x="2060" y="730" width="120" height="60" as="geometry" />
        </mxCell>
        <mxCell id="zyvCb6m9SqBTexZ4Kr70-258" value="" style="edgeStyle=none;curved=0;rounded=0;orthogonalLoop=1;jettySize=auto;html=1;strokeColor=default;align=center;verticalAlign=middle;fontFamily=Lucida Console;fontSize=12;fontColor=default;labelBackgroundColor=default;startSize=14;endArrow=open;endSize=14;sourcePerimeterSpacing=8;targetPerimeterSpacing=8;" parent="1" source="zyvCb6m9SqBTexZ4Kr70-255" target="zyvCb6m9SqBTexZ4Kr70-257" edge="1">
          <mxGeometry relative="1" as="geometry" />
        </mxCell>
        <mxCell id="zyvCb6m9SqBTexZ4Kr70-255" value="FUNCTION&lt;div&gt;eventList&lt;/div&gt;" style="shape=hexagon;perimeter=hexagonPerimeter2;whiteSpace=wrap;html=1;fixedSize=1;fontFamily=Lucida Console;labelBackgroundColor=default;" parent="1" vertex="1">
          <mxGeometry x="2060" y="900" width="120" height="80" as="geometry" />
        </mxCell>
        <mxCell id="zyvCb6m9SqBTexZ4Kr70-264" value="" style="edgeStyle=none;curved=0;rounded=0;orthogonalLoop=1;jettySize=auto;html=1;strokeColor=default;align=center;verticalAlign=middle;fontFamily=Lucida Console;fontSize=12;fontColor=default;labelBackgroundColor=default;startSize=14;endArrow=open;endSize=14;sourcePerimeterSpacing=8;targetPerimeterSpacing=8;" parent="1" source="zyvCb6m9SqBTexZ4Kr70-257" target="zyvCb6m9SqBTexZ4Kr70-263" edge="1">
          <mxGeometry relative="1" as="geometry" />
        </mxCell>
        <mxCell id="zyvCb6m9SqBTexZ4Kr70-257" value="select event" style="shape=parallelogram;perimeter=parallelogramPerimeter;whiteSpace=wrap;html=1;fixedSize=1;fontFamily=Lucida Console;labelBackgroundColor=default;" parent="1" vertex="1">
          <mxGeometry x="2060" y="1090" width="120" height="60" as="geometry" />
        </mxCell>
        <mxCell id="zyvCb6m9SqBTexZ4Kr70-266" value="" style="edgeStyle=none;curved=0;rounded=0;orthogonalLoop=1;jettySize=auto;html=1;strokeColor=default;align=center;verticalAlign=middle;fontFamily=Lucida Console;fontSize=12;fontColor=default;labelBackgroundColor=default;startSize=14;endArrow=open;endSize=14;sourcePerimeterSpacing=8;targetPerimeterSpacing=8;" parent="1" source="zyvCb6m9SqBTexZ4Kr70-263" target="zyvCb6m9SqBTexZ4Kr70-265" edge="1">
          <mxGeometry relative="1" as="geometry" />
        </mxCell>
        <mxCell id="zyvCb6m9SqBTexZ4Kr70-263" value="updateText" style="whiteSpace=wrap;html=1;fontFamily=Lucida Console;labelBackgroundColor=default;" parent="1" vertex="1">
          <mxGeometry x="2060" y="1270" width="120" height="60" as="geometry" />
        </mxCell>
        <mxCell id="zyvCb6m9SqBTexZ4Kr70-265" value="updateEvent" style="whiteSpace=wrap;html=1;fontFamily=Lucida Console;labelBackgroundColor=default;" parent="1" vertex="1">
          <mxGeometry x="2060" y="1450" width="120" height="60" as="geometry" />
        </mxCell>
        <mxCell id="zyvCb6m9SqBTexZ4Kr70-269" value="" style="edgeStyle=none;curved=0;rounded=0;orthogonalLoop=1;jettySize=auto;html=1;strokeColor=default;align=center;verticalAlign=middle;fontFamily=Lucida Console;fontSize=12;fontColor=default;labelBackgroundColor=default;startSize=14;endArrow=open;endSize=14;sourcePerimeterSpacing=8;targetPerimeterSpacing=8;" parent="1" source="zyvCb6m9SqBTexZ4Kr70-267" target="zyvCb6m9SqBTexZ4Kr70-268" edge="1">
          <mxGeometry relative="1" as="geometry" />
        </mxCell>
        <mxCell id="zyvCb6m9SqBTexZ4Kr70-267" value="FUNCTION&lt;div&gt;setView&lt;/div&gt;" style="shape=hexagon;perimeter=hexagonPerimeter2;whiteSpace=wrap;html=1;fixedSize=1;strokeColor=default;align=center;verticalAlign=middle;fontFamily=Lucida Console;fontSize=12;fontColor=default;labelBackgroundColor=default;fillColor=default;" parent="1" vertex="1">
          <mxGeometry x="-340" y="340" width="120" height="80" as="geometry" />
        </mxCell>
        <mxCell id="zyvCb6m9SqBTexZ4Kr70-271" value="" style="edgeStyle=none;curved=0;rounded=0;orthogonalLoop=1;jettySize=auto;html=1;strokeColor=default;align=center;verticalAlign=middle;fontFamily=Lucida Console;fontSize=12;fontColor=default;labelBackgroundColor=default;startSize=14;endArrow=open;endSize=14;sourcePerimeterSpacing=8;targetPerimeterSpacing=8;" parent="1" source="zyvCb6m9SqBTexZ4Kr70-268" target="zyvCb6m9SqBTexZ4Kr70-270" edge="1">
          <mxGeometry relative="1" as="geometry" />
        </mxCell>
        <mxCell id="zyvCb6m9SqBTexZ4Kr70-268" value="createMenu" style="whiteSpace=wrap;html=1;fontFamily=Lucida Console;labelBackgroundColor=default;" parent="1" vertex="1">
          <mxGeometry x="-580" y="350" width="120" height="60" as="geometry" />
        </mxCell>
        <mxCell id="zyvCb6m9SqBTexZ4Kr70-273" value="" style="edgeStyle=none;curved=0;rounded=0;orthogonalLoop=1;jettySize=auto;html=1;strokeColor=default;align=center;verticalAlign=middle;fontFamily=Lucida Console;fontSize=12;fontColor=default;labelBackgroundColor=default;startSize=14;endArrow=open;endSize=14;sourcePerimeterSpacing=8;targetPerimeterSpacing=8;" parent="1" source="zyvCb6m9SqBTexZ4Kr70-270" target="zyvCb6m9SqBTexZ4Kr70-272" edge="1">
          <mxGeometry relative="1" as="geometry">
            <Array as="points">
              <mxPoint x="-620" y="580" />
              <mxPoint x="-620" y="380" />
            </Array>
          </mxGeometry>
        </mxCell>
        <mxCell id="zyvCb6m9SqBTexZ4Kr70-275" value="" style="edgeStyle=none;curved=0;rounded=0;orthogonalLoop=1;jettySize=auto;html=1;strokeColor=default;align=center;verticalAlign=middle;fontFamily=Lucida Console;fontSize=12;fontColor=default;labelBackgroundColor=default;startSize=14;endArrow=open;endSize=14;sourcePerimeterSpacing=8;targetPerimeterSpacing=8;" parent="1" source="zyvCb6m9SqBTexZ4Kr70-270" target="zyvCb6m9SqBTexZ4Kr70-274" edge="1">
          <mxGeometry relative="1" as="geometry">
            <Array as="points">
              <mxPoint x="-620" y="580" />
              <mxPoint x="-620" y="760" />
            </Array>
          </mxGeometry>
        </mxCell>
        <mxCell id="zyvCb6m9SqBTexZ4Kr70-277" value="" style="edgeStyle=none;curved=0;rounded=0;orthogonalLoop=1;jettySize=auto;html=1;strokeColor=default;align=center;verticalAlign=middle;fontFamily=Lucida Console;fontSize=12;fontColor=default;labelBackgroundColor=default;startSize=14;endArrow=open;endSize=14;sourcePerimeterSpacing=8;targetPerimeterSpacing=8;" parent="1" source="zyvCb6m9SqBTexZ4Kr70-270" target="zyvCb6m9SqBTexZ4Kr70-276" edge="1">
          <mxGeometry relative="1" as="geometry" />
        </mxCell>
        <mxCell id="zyvCb6m9SqBTexZ4Kr70-270" value="SELECT" style="rhombus;whiteSpace=wrap;html=1;fontFamily=Lucida Console;labelBackgroundColor=default;" parent="1" vertex="1">
          <mxGeometry x="-560" y="540" width="80" height="80" as="geometry" />
        </mxCell>
        <mxCell id="zyvCb6m9SqBTexZ4Kr70-272" value="land" style="whiteSpace=wrap;html=1;fontFamily=Lucida Console;labelBackgroundColor=default;" parent="1" vertex="1">
          <mxGeometry x="-780" y="350" width="120" height="60" as="geometry" />
        </mxCell>
        <mxCell id="zyvCb6m9SqBTexZ4Kr70-283" value="" style="edgeStyle=none;curved=0;rounded=0;orthogonalLoop=1;jettySize=auto;html=1;strokeColor=default;align=center;verticalAlign=middle;fontFamily=Lucida Console;fontSize=12;fontColor=default;labelBackgroundColor=default;startSize=14;endArrow=open;endSize=14;sourcePerimeterSpacing=8;targetPerimeterSpacing=8;" parent="1" source="zyvCb6m9SqBTexZ4Kr70-274" target="zyvCb6m9SqBTexZ4Kr70-291" edge="1">
          <mxGeometry relative="1" as="geometry">
            <mxPoint x="-890" y="580" as="targetPoint" />
            <Array as="points">
              <mxPoint x="-840" y="760" />
              <mxPoint x="-840" y="935" />
              <mxPoint x="-840" y="1300" />
            </Array>
          </mxGeometry>
        </mxCell>
        <mxCell id="zyvCb6m9SqBTexZ4Kr70-274" value="regional" style="whiteSpace=wrap;html=1;fontFamily=Lucida Console;labelBackgroundColor=default;" parent="1" vertex="1">
          <mxGeometry x="-780" y="730" width="120" height="60" as="geometry" />
        </mxCell>
        <mxCell id="zyvCb6m9SqBTexZ4Kr70-284" value="" style="edgeStyle=none;curved=0;rounded=0;orthogonalLoop=1;jettySize=auto;html=1;strokeColor=default;align=center;verticalAlign=middle;fontFamily=Lucida Console;fontSize=12;fontColor=default;labelBackgroundColor=default;startSize=14;endArrow=open;endSize=14;sourcePerimeterSpacing=8;targetPerimeterSpacing=8;" parent="1" source="zyvCb6m9SqBTexZ4Kr70-276" target="zyvCb6m9SqBTexZ4Kr70-291" edge="1">
          <mxGeometry relative="1" as="geometry">
            <mxPoint x="-900" y="630" as="targetPoint" />
            <Array as="points">
              <mxPoint x="-840" y="580" />
              <mxPoint x="-840" y="935" />
              <mxPoint x="-840" y="1300" />
            </Array>
          </mxGeometry>
        </mxCell>
        <mxCell id="zyvCb6m9SqBTexZ4Kr70-276" value="world" style="rounded=0;whiteSpace=wrap;html=1;fontFamily=Lucida Console;labelBackgroundColor=default;fillColor=none;glass=0;" parent="1" vertex="1">
          <mxGeometry x="-780" y="550" width="120" height="60" as="geometry" />
        </mxCell>
        <mxCell id="zyvCb6m9SqBTexZ4Kr70-292" value="" style="edgeStyle=none;curved=0;rounded=0;orthogonalLoop=1;jettySize=auto;html=1;strokeColor=default;align=center;verticalAlign=middle;fontFamily=Lucida Console;fontSize=12;fontColor=default;labelBackgroundColor=default;startSize=14;endArrow=open;endSize=14;sourcePerimeterSpacing=8;targetPerimeterSpacing=8;" parent="1" source="zyvCb6m9SqBTexZ4Kr70-278" target="zyvCb6m9SqBTexZ4Kr70-291" edge="1">
          <mxGeometry relative="1" as="geometry" />
        </mxCell>
        <mxCell id="zyvCb6m9SqBTexZ4Kr70-278" value="&lt;div&gt;ARRAY&lt;/div&gt;currentMonth" style="shape=trapezoid;perimeter=trapezoidPerimeter;whiteSpace=wrap;html=1;fixedSize=1;fontFamily=Lucida Console;labelBackgroundColor=default;" parent="1" vertex="1">
          <mxGeometry x="-780" y="1085" width="120" height="60" as="geometry" />
        </mxCell>
        <mxCell id="zyvCb6m9SqBTexZ4Kr70-285" value="" style="edgeStyle=none;orthogonalLoop=1;jettySize=auto;html=1;rounded=0;strokeColor=default;align=center;verticalAlign=middle;fontFamily=Lucida Console;fontSize=12;fontColor=default;labelBackgroundColor=default;startSize=14;endArrow=open;endSize=14;sourcePerimeterSpacing=8;targetPerimeterSpacing=8;curved=0;" parent="1" source="zyvCb6m9SqBTexZ4Kr70-272" target="zyvCb6m9SqBTexZ4Kr70-291" edge="1">
          <mxGeometry width="140" relative="1" as="geometry">
            <mxPoint x="-910" y="470" as="sourcePoint" />
            <mxPoint x="-900" y="500" as="targetPoint" />
            <Array as="points">
              <mxPoint x="-840" y="380" />
              <mxPoint x="-840" y="1300" />
            </Array>
          </mxGeometry>
        </mxCell>
        <mxCell id="zyvCb6m9SqBTexZ4Kr70-289" value="" style="edgeStyle=none;curved=0;rounded=0;orthogonalLoop=1;jettySize=auto;html=1;strokeColor=default;align=center;verticalAlign=middle;fontFamily=Lucida Console;fontSize=12;fontColor=default;labelBackgroundColor=default;startSize=14;endArrow=open;endSize=14;sourcePerimeterSpacing=8;targetPerimeterSpacing=8;" parent="1" source="zyvCb6m9SqBTexZ4Kr70-286" target="zyvCb6m9SqBTexZ4Kr70-278" edge="1">
          <mxGeometry relative="1" as="geometry" />
        </mxCell>
        <mxCell id="zyvCb6m9SqBTexZ4Kr70-286" value="holds current month to update data" style="shape=document;whiteSpace=wrap;html=1;boundedLbl=1;strokeColor=default;align=center;verticalAlign=middle;fontFamily=Lucida Console;fontSize=12;fontColor=default;labelBackgroundColor=default;fillColor=default;" parent="1" vertex="1">
          <mxGeometry x="-780" y="900" width="120" height="80" as="geometry" />
        </mxCell>
        <mxCell id="zyvCb6m9SqBTexZ4Kr70-288" value="" style="edgeStyle=none;curved=0;rounded=0;orthogonalLoop=1;jettySize=auto;html=1;strokeColor=default;align=center;verticalAlign=middle;fontFamily=Lucida Console;fontSize=12;fontColor=default;labelBackgroundColor=default;startSize=14;endArrow=open;endSize=14;sourcePerimeterSpacing=8;targetPerimeterSpacing=8;" parent="1" source="zyvCb6m9SqBTexZ4Kr70-287" target="zyvCb6m9SqBTexZ4Kr70-248" edge="1">
          <mxGeometry relative="1" as="geometry" />
        </mxCell>
        <mxCell id="zyvCb6m9SqBTexZ4Kr70-287" value="holds currentCountry to load POIs" style="shape=document;whiteSpace=wrap;html=1;boundedLbl=1;strokeColor=default;align=center;verticalAlign=middle;fontFamily=Lucida Console;fontSize=12;fontColor=default;labelBackgroundColor=default;fillColor=default;" parent="1" vertex="1">
          <mxGeometry x="2300" y="720" width="120" height="80" as="geometry" />
        </mxCell>
        <mxCell id="zyvCb6m9SqBTexZ4Kr70-291" value="&lt;div&gt;CALL&lt;/div&gt;&lt;div&gt;softReset&lt;/div&gt;" style="shape=trapezoid;perimeter=trapezoidPerimeter;whiteSpace=wrap;html=1;fixedSize=1;strokeColor=default;align=center;verticalAlign=middle;fontFamily=Lucida Console;fontSize=12;fontColor=default;labelBackgroundColor=default;fillColor=default;" parent="1" vertex="1">
          <mxGeometry x="-780" y="1270" width="120" height="60" as="geometry" />
        </mxCell>
        <mxCell id="zyvCb6m9SqBTexZ4Kr70-296" value="" style="edgeStyle=none;curved=0;rounded=0;orthogonalLoop=1;jettySize=auto;html=1;strokeColor=default;align=center;verticalAlign=middle;fontFamily=Lucida Console;fontSize=12;fontColor=default;labelBackgroundColor=default;startSize=14;endArrow=open;endSize=14;sourcePerimeterSpacing=8;targetPerimeterSpacing=8;" parent="1" source="zyvCb6m9SqBTexZ4Kr70-295" target="zyvCb6m9SqBTexZ4Kr70-90" edge="1">
          <mxGeometry relative="1" as="geometry" />
        </mxCell>
        <mxCell id="zyvCb6m9SqBTexZ4Kr70-295" value="FUNCTION&lt;div&gt;softReset&lt;/div&gt;" style="shape=hexagon;perimeter=hexagonPerimeter2;whiteSpace=wrap;html=1;fixedSize=1;strokeColor=default;align=center;verticalAlign=middle;fontFamily=Lucida Console;fontSize=12;fontColor=default;labelBackgroundColor=default;fillColor=default;" parent="1" vertex="1">
          <mxGeometry x="140" y="1440" width="120" height="80" as="geometry" />
        </mxCell>
        <mxCell id="zyvCb6m9SqBTexZ4Kr70-299" value="" style="edgeStyle=none;orthogonalLoop=1;jettySize=auto;html=1;rounded=0;strokeColor=default;align=center;verticalAlign=middle;fontFamily=Lucida Console;fontSize=12;fontColor=default;labelBackgroundColor=default;startSize=14;endArrow=open;endSize=14;sourcePerimeterSpacing=8;targetPerimeterSpacing=8;curved=0;dashed=1;dashPattern=8 8;" parent="1" source="zyvCb6m9SqBTexZ4Kr70-76" target="zyvCb6m9SqBTexZ4Kr70-69" edge="1">
          <mxGeometry width="140" relative="1" as="geometry">
            <mxPoint x="-470" y="1190" as="sourcePoint" />
            <mxPoint x="-330" y="1190" as="targetPoint" />
            <Array as="points" />
          </mxGeometry>
        </mxCell>
        <mxCell id="zyvCb6m9SqBTexZ4Kr70-300" value="" style="edgeStyle=none;orthogonalLoop=1;jettySize=auto;html=1;rounded=0;strokeColor=default;align=center;verticalAlign=middle;fontFamily=Lucida Console;fontSize=12;fontColor=default;labelBackgroundColor=default;startSize=14;endArrow=open;endSize=14;sourcePerimeterSpacing=8;targetPerimeterSpacing=8;curved=0;dashed=1;dashPattern=8 8;" parent="1" source="zyvCb6m9SqBTexZ4Kr70-76" target="zyvCb6m9SqBTexZ4Kr70-73" edge="1">
          <mxGeometry width="140" relative="1" as="geometry">
            <mxPoint x="-470" y="1220" as="sourcePoint" />
            <mxPoint x="-330" y="1220" as="targetPoint" />
            <Array as="points">
              <mxPoint x="-400" y="1120" />
              <mxPoint x="-400" y="1480" />
            </Array>
          </mxGeometry>
        </mxCell>
      </root>
    </mxGraphModel>
  </diagram>
</mxfile>
